<svg version="1" xmlns="http://www.w3.org/2000/svg" width="1440" height="1440" viewBox="0 0 1080.000000 1080.000000"><path d="M526.6 14.7c-.2.2-3.4.5-21.1 1.8-8.2.6-19.4 1.8-29 3.1-2.2.3-5.1.7-6.5.9-7.8 1.1-12.6 1.8-22.5 3.7-6 1.1-12.1 2.2-13.5 2.4-5.7 1-22.1 4.7-31.5 7-59.1 14.8-115.6 41.8-166 79.4-13.6 10.1-35.2 27.9-39.4 32.4l-2.4 2.6 2.4.1c3.1.1 689.1.1 690.3 0 2.1-.2-31.5-27.5-48.4-39.4-68.8-48.4-137.2-76.9-212-88.3-2.5-.3-5.3-.8-6.2-.9-.9-.2-4.3-.6-7.5-1-3.2-.3-7.3-.8-9.1-1-1.9-.2-6.8-.7-11-1.1-4.3-.3-9.9-.8-12.7-1.1-5.4-.5-53.4-1-53.9-.6zM142 201.2c-9.8 11.5-10 11.7-19 23.3-24.8 31.8-47.3 68.3-61.7 100-8.4 18.4-12 27.2-17 40.8-3 8.3-12.1 37.7-12.7 41.2-.3 1.4-.7 3.3-1 4.3-.3.9-.8 2.8-1 4.2-.3 1.4-1 4.3-1.5 6.5-.6 2.2-1.3 5.5-1.6 7.4-.3 1.9-.7 3.7-.9 4-.2.3-.7 3.1-1.1 6.1-.4 3-.8 5.7-1 6-.2.3-.6 2.6-.9 5-.4 2.5-.9 5.6-1.1 7-.4 2.3-.9 5.8-2 14.7-.9 7.5-1.5 13.9-2 20.8-.3 3.8-.8 9.9-1.2 13.5-1 8.8-1 46.5 0 57 .4 4.7 1 11.2 1.3 14.5.2 3.3.7 8.7 1 12 .3 3.3.7 7.8.9 10 .8 9 1.6 15.3 2.5 20 .9 5.1 1.7 10.2 2.6 16.5 1 7.9 6.7 34.5 10.5 49 5.4 21 14.3 47.1 21.5 62.8 1.3 2.9 2.4 5.5 2.4 5.8 0 .3 3.2 7.1 7.1 15.1 11.4 23.5 25.2 46.6 40.7 68.3 6.9 9.6 23.5 30.7 27.9 35.5 1 1.1 4.2 4.8 7.2 8.2 3 3.5 5.9 6.3 6.5 6.3 1.2 0 1.7-691.3.5-692.5-.4-.3-3.5 2.7-6.9 6.7zM302.3 654.1v353l13.1 6.4c19.8 9.5 45.7 20.1 60.1 24.6 2.2.6 4.9 1.5 6 2 5.7 2.3 40.1 11.4 50.1 13.2l3.2.6V749.2c.1-167.6.1-306.9.1-309.5l.1-4.8 248.3.3 248.2.3.2 314c.1 172.7.2 314.5.2 315 .1.7 19.7 1 58.4.9 75.7-.2 71.3-.1 73.2-2 1.4-1.5 1.5-25.9 1.2-281.3-.2-153.8-.6-282.3-1-285.6-.3-3.3-.8-7.8-1.1-10-.3-2.2-.8-5.8-1-8-1.2-10-1.6-13.2-2.1-15.5-.2-1.3-.7-4.2-1-6.5-.5-3.2-5.5-28.8-7-35.5-3.1-13.7-13.5-48.9-17.6-59.2-1.1-2.9-2.8-7.3-3.6-9.8-2.1-6.1-13-31.4-18.3-42.3l-4.2-8.7H302.3v353.1z"/><path d="M587.9 588.6c-.8 1-.5 470.9.4 474.9.4 1.9 1.9 1.9 95 2H778V826.8c0-226.7-.1-238.8-1.7-238.9-1 0-43.6-.1-94.6-.2-64.5-.1-93.1.1-93.8.9z"/></svg>