<svg xmlns="http://www.w3.org/2000/svg" xmlns:xlink="http://www.w3.org/1999/xlink" viewBox="0 0 155 60"><defs><style>.cls-1,.cls-10,.cls-11,.cls-3{fill:#fff;}.cls-1{fill-opacity:0;}.cls-2{fill:transparent;}.cls-4{fill:url(#linear-gradient);}.cls-5{fill:url(#linear-gradient-2);}.cls-6{fill:url(#linear-gradient-3);}.cls-7{fill:url(#linear-gradient-4);}.cls-8{opacity:0.2;}.cls-10,.cls-8,.cls-9{isolation:isolate;}.cls-9{opacity:0.12;}.cls-10{opacity:0.25;}.cls-11{stroke:#fff;stroke-miterlimit:10;stroke-width:0.2px;}</style><linearGradient id="linear-gradient" x1="31.8" y1="183.29" x2="15.02" y2="166.51" gradientTransform="matrix(1, 0, 0, -1, 0, 202)" gradientUnits="userSpaceOnUse"><stop offset="0" stop-color="#00a0ff"/><stop offset="0.01" stop-color="#00a1ff"/><stop offset="0.26" stop-color="#00beff"/><stop offset="0.51" stop-color="#00d2ff"/><stop offset="0.76" stop-color="#00dfff"/><stop offset="1" stop-color="#00e3ff"/></linearGradient><linearGradient id="linear-gradient-2" x1="43.83" y1="172" x2="19.64" y2="172" gradientTransform="matrix(1, 0, 0, -1, 0, 202)" gradientUnits="userSpaceOnUse"><stop offset="0" stop-color="#ffe000"/><stop offset="0.41" stop-color="#ffbd00"/><stop offset="0.78" stop-color="orange"/><stop offset="1" stop-color="#ff9c00"/></linearGradient><linearGradient id="linear-gradient-3" x1="34.83" y1="169.7" x2="12.07" y2="146.95" gradientTransform="matrix(1, 0, 0, -1, 0, 202)" gradientUnits="userSpaceOnUse"><stop offset="0" stop-color="#ff3a44"/><stop offset="1" stop-color="#c31162"/></linearGradient><linearGradient id="linear-gradient-4" x1="17.3" y1="191.82" x2="27.46" y2="181.66" gradientTransform="matrix(1, 0, 0, -1, 0, 202)" gradientUnits="userSpaceOnUse"><stop offset="0" stop-color="#32a071"/><stop offset="0.07" stop-color="#2da771"/><stop offset="0.48" stop-color="#15cf74"/><stop offset="0.8" stop-color="#06e775"/><stop offset="1" stop-color="#00f076"/></linearGradient></defs><title>Asset 7</title><g id="Layer_2" data-name="Layer 2"><g id="artwork"><rect class="cls-1" width="155" height="60"/><rect x="10" y="10" width="135" height="40" rx="5"/><path class="cls-2" d="M140,10.8a4.2,4.2,0,0,1,4.2,4.2V45a4.2,4.2,0,0,1-4.2,4.2H15A4.2,4.2,0,0,1,10.8,45V15A4.2,4.2,0,0,1,15,10.8H140m0-.8H15a5,5,0,0,0-5,5V45a5,5,0,0,0,5,5H140a5,5,0,0,0,5-5V15a5,5,0,0,0-5-5Z"/><path class="cls-3" d="M78.14,31.75A4.26,4.26,0,1,0,82.41,36,4.19,4.19,0,0,0,78.14,31.75Zm0,6.83A2.58,2.58,0,1,1,80.54,36,2.46,2.46,0,0,1,78.14,38.58Zm-9.32-6.83A4.26,4.26,0,1,0,73.09,36,4.19,4.19,0,0,0,68.82,31.75Zm0,6.83A2.58,2.58,0,1,1,71.22,36,2.46,2.46,0,0,1,68.82,38.58ZM57.74,33.06v1.8h4.32a3.77,3.77,0,0,1-1,2.27,4.42,4.42,0,0,1-3.34,1.32,4.8,4.8,0,0,1,0-9.6A4.64,4.64,0,0,1,61,30.14l1.27-1.27a6.3,6.3,0,0,0-4.53-1.82,6.61,6.61,0,1,0,0,13.21,6.07,6.07,0,0,0,4.61-1.85,6,6,0,0,0,1.56-4.23,6.27,6.27,0,0,0-.09-1.12Zm45.31,1.4a4,4,0,0,0-3.64-2.71,4,4,0,0,0-4,4.25,4.23,4.23,0,0,0,7.76,2.37l-1.45-1a2.41,2.41,0,0,1-2.09,1.17,2.15,2.15,0,0,1-2.06-1.29l5.69-2.35Zm-5.8,1.42a2.34,2.34,0,0,1,2.23-2.49,1.64,1.64,0,0,1,1.57.91ZM92.63,40H94.5V27.5H92.63Zm-3.06-7.3H89.5a2.94,2.94,0,0,0-2.24-1,4.26,4.26,0,0,0,0,8.51,2.88,2.88,0,0,0,2.24-1h.07v.61c0,1.63-.87,2.5-2.27,2.5a2.36,2.36,0,0,1-2.15-1.51l-1.62.67a4,4,0,0,0,3.77,2.52c2.19,0,4-1.29,4-4.43V32H89.57Zm-2.15,5.88a2.58,2.58,0,0,1,0-5.15A2.39,2.39,0,0,1,89.7,36,2.38,2.38,0,0,1,87.42,38.58ZM111.81,27.5h-4.48V40h1.87V35.26h2.61a3.89,3.89,0,1,0,0-7.76Zm0,6H109.2V29.24h2.65a2.14,2.14,0,1,1,0,4.28Zm11.54-1.79a3.49,3.49,0,0,0-3.33,1.91l1.65.69a1.78,1.78,0,0,1,1.71-.91,1.8,1.8,0,0,1,2,1.61v.12a4.18,4.18,0,0,0-1.95-.48c-1.78,0-3.6,1-3.6,2.82a2.89,2.89,0,0,0,3.11,2.75A2.65,2.65,0,0,0,125.32,39h.06v1h1.8V35.19C127.18,33,125.52,31.73,123.39,31.73Zm-.23,6.85c-.61,0-1.46-.31-1.46-1.06,0-1,1.06-1.34,2-1.34a3.32,3.32,0,0,1,1.7.42A2.26,2.26,0,0,1,123.16,38.58ZM133.74,32l-2.14,5.42h-.06L129.32,32h-2l3.33,7.58-1.9,4.21h1.95L135.82,32Zm-16.8,8h1.86V27.5h-1.86Z"/><path class="cls-4" d="M20.44,17.54a2,2,0,0,0-.47,1.4V41.06a1.94,1.94,0,0,0,.47,1.4l.07.08L32.9,30.15v-.3L20.51,17.47Z"/><path class="cls-5" d="M37,34.28,32.9,30.15v-.3L37,25.72l.09.06L42,28.56c1.4.79,1.4,2.09,0,2.89l-4.89,2.78Z"/><path class="cls-6" d="M37.12,34.22,32.9,30,20.44,42.46a1.62,1.62,0,0,0,2.07.07l14.61-8.31"/><path class="cls-7" d="M37.12,25.78l-14.61-8.3a1.61,1.61,0,0,0-2.07.06L32.9,30Z"/><path class="cls-8" d="M37,34.13,22.51,42.38a1.66,1.66,0,0,1-2,0h0l-.07.07h0l.07.08h0a1.66,1.66,0,0,0,2,0l14.61-8.31Z"/><path class="cls-9" d="M20.44,42.32A2,2,0,0,1,20,40.91v.15a1.94,1.94,0,0,0,.47,1.4l.07-.07Z"/><path class="cls-9" d="M42,31.3l-5,2.83.09.09L42,31.44A1.75,1.75,0,0,0,43.06,30h0A1.86,1.86,0,0,1,42,31.3Z"/><path class="cls-10" d="M22.51,17.62,42,28.7A1.86,1.86,0,0,1,43.06,30h0A1.75,1.75,0,0,0,42,28.56L22.51,17.48c-1.39-.8-2.54-.14-2.54,1.46v.15C20,17.49,21.12,16.83,22.51,17.62Z"/><path class="cls-11" d="M53.32,23.17a2.12,2.12,0,0,1-1.18-.38,1.93,1.93,0,0,1-.78-1.12l.73-.31a1.5,1.5,0,0,0,.47.76,1.1,1.1,0,0,0,.76.28,1.28,1.28,0,0,0,.84-.31,1,1,0,0,0,0-1.51,1.27,1.27,0,0,0-.87-.31h-.51v-.75h.45a1.12,1.12,0,0,0,.78-.27.84.84,0,0,0,.31-.7.76.76,0,0,0-.3-.64,1.16,1.16,0,0,0-.75-.24,1,1,0,0,0-1,.78l-.74-.32a2,2,0,0,1,.62-.85,1.76,1.76,0,0,1,1.16-.38,2,2,0,0,1,1.34.47,1.5,1.5,0,0,1,.54,1.18,1.37,1.37,0,0,1-.81,1.29v0a1.72,1.72,0,0,1,.72.56,1.42,1.42,0,0,1,.29.89,1.7,1.7,0,0,1-.59,1.32A2.11,2.11,0,0,1,53.32,23.17Z"/><path class="cls-11" d="M55.84,23l2.36-6.27h.91L61.47,23h-.89l-.6-1.7H57.34L56.73,23Zm1.77-2.45H59.7l-1-2.83h0Z"/><path class="cls-11" d="M62.28,23V16.76h2.27a1.81,1.81,0,0,1,1.27.49,1.57,1.57,0,0,1,.54,1.22,1.38,1.38,0,0,1-.23.78,1.5,1.5,0,0,1-.62.52v0a1.53,1.53,0,0,1,.76.54,1.41,1.41,0,0,1,.3.89A1.65,1.65,0,0,1,66,22.52a1.91,1.91,0,0,1-1.33.51Zm.81-3.58h1.46a1,1,0,0,0,.73-.3,1,1,0,0,0,.27-.67,1,1,0,0,0-.26-.65.91.91,0,0,0-.71-.3H63.09Zm0,2.81H64.7a1,1,0,0,0,.76-.33,1,1,0,0,0,.29-.71,1,1,0,0,0-.3-.7,1,1,0,0,0-.78-.32H63.09Z"/><path class="cls-11" d="M67,23l2.36-6.27h.91L72.6,23h-.89l-.6-1.7H68.47L67.86,23Zm1.77-2.45h2.09l-1-2.83h0Z"/><path class="cls-11" d="M73.41,23V16.76h.81v2.69h3.13V16.76h.8V23h-.8V20.2H74.22V23Z"/><path class="cls-11" d="M81.57,23h-.8v-5.5H79v-.77h4.3v.77H81.57Z"/><path class="cls-11" d="M83.11,23l2.36-6.27h.91L88.74,23h-.89l-.6-1.7H84.61L84,23Zm1.77-2.45H87l-1-2.83h0Z"/><path class="cls-11" d="M93.55,20.16V23h-.8V20.16h0L90.28,23h-1v0l2.64-3L89.33,16.8v0h1l2.4,3h0v-3h.8v3h0l2.39-3h1v0L94.43,20l2.64,3v0H96l-2.43-2.87Z"/><path class="cls-11" d="M102.67,16.76V23h-.81V19.12l0-1.2h0L98.68,23h-.84V16.76h.8v3.67l0,1.2h0l3-4.87Z"/><path class="cls-11" d="M106.08,23h-.8v-5.5h-1.75v-.77h4.3v.77h-1.75Z"/><path class="cls-11" d="M113.56,16.76V23h-.81V19.12l0-1.2h0L109.57,23h-.84V16.76h.8v3.67l0,1.2h0l3-4.87Z"/><path class="cls-11" d="M118.39,23.17a2.12,2.12,0,0,1-1.18-.38,1.89,1.89,0,0,1-.78-1.12l.73-.31a1.49,1.49,0,0,0,.46.76,1.13,1.13,0,0,0,.77.28,1.28,1.28,0,0,0,.84-.31,1,1,0,0,0,.35-.76.94.94,0,0,0-.36-.75,1.27,1.27,0,0,0-.87-.31h-.52v-.75h.46a1.12,1.12,0,0,0,.78-.27.84.84,0,0,0,.31-.7.76.76,0,0,0-.3-.64,1.16,1.16,0,0,0-.75-.24,1,1,0,0,0-1,.78l-.74-.32a1.93,1.93,0,0,1,.62-.85,1.76,1.76,0,0,1,1.16-.38,2,2,0,0,1,1.34.47,1.5,1.5,0,0,1,.54,1.18,1.37,1.37,0,0,1-.81,1.29v0a1.72,1.72,0,0,1,.72.56,1.42,1.42,0,0,1,.29.89,1.7,1.7,0,0,1-.59,1.32A2.11,2.11,0,0,1,118.39,23.17Z"/></g></g></svg>