<svg id="Слой_1" data-name="Слой 1" xmlns="http://www.w3.org/2000/svg" viewBox="0 0 200.87 66.88"><defs><style>.cls-6{isolation:isolate}</style></defs><g id="GP"><path id="Контур_58903-2" data-name="Контур 58903-2" d="M191.9.44H9C4.26.44.44 4.57.44 9.68V57.2c0 5.1 3.82 9.24 8.53 9.24H191.9c4.72 0 8.54-4.14 8.54-9.24V9.68c0-5.11-3.82-9.24-8.54-9.24z" fill="#192140" stroke="#4c4c4c" stroke-width=".88"/><g id="Сгруппировать_46674" data-name="Сгруппировать 46674"><path id="Контур_58949" data-name="Контур 58949" d="M49.12 32.31L37.91 25.9l-6.5 6.5 7.34 7.34 10.38-6.06a.78.78 0 000-1.37z" fill="#f7cd46" stroke="#f7d047"/><path id="Контур_58947" data-name="Контур 58947" d="M38.82 26.36L22.48 17a.67.67 0 00-.66 0 .66.66 0 00-.33.57v2.28l11.9 11.9z" fill="#6dea82" stroke="#6dea82"/><path id="Контур_58948" data-name="Контур 58948" d="M21.5 20.93c0 4.95.08 16.94.1 22.92L33 32.44z" fill="#5ed2f9" stroke="#5ed1f9"/><path id="Контур_58950" data-name="Контур 58950" d="M21.6 45v3.66a.68.68 0 00.33.58.69.69 0 00.68 0l17.14-10L33.57 33z" fill="#e94b4d" stroke="#e94b4d"/></g><text transform="translate(58.58 48.73)" style="isolation:isolate" fill="#fff" font-family="Helvetica" font-size="20" id="Google_Play" data-name="Google Play">Google Play</text><text transform="translate(60.58 24.28)" style="isolation:isolate" font-size="13" fill="#fff" font-family="Helvetica" id="Завантажити_з-2" data-name="Завантажити з-2">Завантажити з</text></g></svg>
