<?xml version="1.0" encoding="utf-8"?><svg xmlns="http://www.w3.org/2000/svg" xmlns:xlink="http://www.w3.org/1999/xlink"><symbol viewBox="0 0 284.929 284.929" id="angle-arrow-down" xmlns="http://www.w3.org/2000/svg"><path d="M282.082 76.511l-14.274-14.273c-1.902-1.906-4.093-2.856-6.57-2.856-2.471 0-4.661.95-6.563 2.856L142.466 174.441 30.262 62.241c-1.903-1.906-4.093-2.856-6.567-2.856-2.475 0-4.665.95-6.567 2.856L2.856 76.515C.95 78.417 0 80.607 0 83.082c0 2.473.953 4.663 2.856 6.565l133.043 133.046c1.902 1.903 4.093 2.854 6.567 2.854s4.661-.951 6.562-2.854L282.082 89.647c1.902-1.903 2.847-4.093 2.847-6.565 0-2.475-.945-4.665-2.847-6.571z"/></symbol><symbol viewBox="1479.403 1696.763 186.493 131.124" id="arrow-pointing-to-right" xmlns="http://www.w3.org/2000/svg"><path d="M1605.032 1698.674a6.733 6.733 0 0 0-9.397 0c-2.548 2.629-2.548 6.857 0 9.397l47.667 47.675h-157.301a6.555 6.555 0 0 0-6.598 6.591c0 3.651 2.925 6.657 6.598 6.657h157.301l-47.667 47.586a6.732 6.732 0 0 0 0 9.397 6.733 6.733 0 0 0 9.397 0l58.953-58.953c2.547-2.54 2.547-6.768 0-9.397l-58.953-58.953zm0 0"/></symbol><symbol viewBox="4379.394 1695.777 112.933 180.171" id="baby" xmlns="http://www.w3.org/2000/svg"><path d="M4450.678 1864.452a3.52 3.52 0 0 0-4.576 1.958c-.604 1.507-2.137 2.52-3.813 2.52h-12.857c-1.676 0-3.208-1.013-3.813-2.52a3.52 3.52 0 0 0-6.534 2.618c1.69 4.216 5.751 6.94 10.346 6.94h12.857c4.595 0 8.655-2.724 10.345-6.94a3.517 3.517 0 0 0-1.955-4.576z"/><path d="M4492.009 1846.322a17.366 17.366 0 0 0-8.333-11.715 17.51 17.51 0 0 0 6.255-16.186 44.308 44.308 0 0 0-10.103-22.18 44.472 44.472 0 0 0-14.506-11.193c6.774-7.227 10.93-16.937 10.93-27.6 0-18.453-12.44-34.056-29.375-38.864a15.221 15.221 0 0 0 3.565-9.83c0-7.156-5.821-12.977-12.977-12.977h-.001c-2.888 0-5.593.939-7.617 2.644-2.236 1.884-3.468 4.533-3.468 7.457a3.52 3.52 0 0 0 7.039 0c0-.837.324-1.535.965-2.075.756-.637 1.85-.988 3.082-.988a5.944 5.944 0 0 1 5.938 5.938 8.249 8.249 0 0 1-2.432 5.871 8.248 8.248 0 0 1-5.87 2.432c-.086 0-.171.007-.255.013-21.805.541-39.376 18.446-39.376 40.378 0 10.663 4.155 20.373 10.93 27.6a44.465 44.465 0 0 0-14.505 11.193 44.3 44.3 0 0 0-10.103 22.18 17.516 17.516 0 0 0 4.048 14.044 17.562 17.562 0 0 0 2.206 2.143 17.366 17.366 0 0 0-4.96 25.728l7.537 9.631c3.045 3.891 7.67 5.983 12.362 5.983 2.664 0 5.349-.674 7.778-2.077 6.708-3.873 9.583-12.211 6.687-19.395l-4.572-11.342a17.44 17.44 0 0 0-1.069-2.183h25.813a3.52 3.52 0 1 0 0-7.038h-32.503v-7.419c0-.956.777-1.733 1.732-1.733h58.023c.955 0 1.732.777 1.732 1.733v7.906a17.354 17.354 0 0 0-7.76 8.735l-4.572 11.342c-2.896 7.184-.021 15.522 6.687 19.395a15.526 15.526 0 0 0 7.778 2.077c4.691 0 9.317-2.093 12.362-5.983l7.536-9.631a17.37 17.37 0 0 0 3.372-14.014zm-56.149-122.227c18.39 0 33.353 14.962 33.353 33.353 0 18.391-14.961 33.352-33.353 33.353-18.39 0-33.353-14.962-33.353-33.353.001-18.391 14.963-33.352 33.353-33.353zm-47.109 95.373c2.015-13.392 10.944-24.457 23.48-29.283a40.172 40.172 0 0 0 23.629 7.654 40.175 40.175 0 0 0 23.63-7.654c12.536 4.826 21.465 15.891 23.479 29.283a10.478 10.478 0 0 1-2.423 8.404 10.475 10.475 0 0 1-6.904 3.592v-4.97c0-3.576-2.152-6.657-5.229-8.021v-4.269a3.52 3.52 0 0 0-7.039 0v3.519h-51.008v-3.519a3.52 3.52 0 0 0-7.039 0v4.259c-3.089 1.359-5.252 4.447-5.252 8.032v4.97a10.477 10.477 0 0 1-6.904-3.592 10.491 10.491 0 0 1-2.42-8.405zm18.492 48.309c-3.689 2.13-8.452 1.207-11.078-2.149l-7.537-9.631a10.329 10.329 0 0 1-2.006-8.335 10.332 10.332 0 0 1 19.727-1.896l4.572 11.343c1.593 3.951.011 8.537-3.678 10.668zm75.849-11.78l-7.536 9.631c-2.626 3.355-7.388 4.278-11.078 2.149-3.69-2.13-5.271-6.716-3.678-10.668l4.572-11.342a10.328 10.328 0 0 1 9.584-6.469 10.335 10.335 0 0 1 10.144 8.366 10.327 10.327 0 0 1-2.008 8.333z"/><path d="M4454.087 1839.92a3.546 3.546 0 0 0 1.031-2.488c0-.926-.376-1.834-1.031-2.488a3.545 3.545 0 0 0-2.488-1.031c-.926 0-1.833.376-2.488 1.031a3.545 3.545 0 0 0-1.031 2.488c0 .929.376 1.833 1.031 2.488a3.533 3.533 0 0 0 2.488 1.031 3.53 3.53 0 0 0 2.488-1.031zm-28.447-65.503a13.106 13.106 0 0 0 10.221 4.877c3.983 0 7.709-1.778 10.221-4.877a3.52 3.52 0 1 0-5.468-4.432 6.094 6.094 0 0 1-4.753 2.27 6.098 6.098 0 0 1-4.753-2.27 3.52 3.52 0 0 0-5.468 4.432zm-5.276-14.481a1.152 1.152 0 0 1 1.626 0 3.511 3.511 0 0 0 2.489 1.031 3.518 3.518 0 0 0 2.488-6.008c-3.192-3.192-8.387-3.192-11.58 0a3.519 3.519 0 1 0 4.977 4.977zm26.878 1.031c.9 0 1.801-.344 2.488-1.031a1.152 1.152 0 0 1 1.626 0 3.519 3.519 0 1 0 4.977-4.977c-3.192-3.192-8.388-3.192-11.58 0a3.521 3.521 0 0 0 2.489 6.008z"/></symbol><symbol viewBox="4157.795 335.232 171.147 146.793" id="balance" xmlns="http://www.w3.org/2000/svg"><path d="M4328.526 421.939l-24.695-49.488c.543-.7.875-1.567.875-2.524a4.143 4.143 0 0 0-4.14-4.141h-46.668a4.998 4.998 0 0 0-1.54-9.753h-1.839c2.726-2.129 4.488-5.438 4.488-9.164 0-6.43-5.211-11.637-11.637-11.637s-11.636 5.211-11.636 11.637c0 3.726 1.761 7.035 4.484 9.164h-1.836a5 5 0 0 0-5 5 5 5 0 0 0 3.461 4.753h-46.195l-.008-.015-.008.015h-.457a4.144 4.144 0 0 0-4.145 4.141c0 1.098.434 2.082 1.125 2.824l-24.945 49.989a3.94 3.94 0 0 0-.359 2.425 2.077 2.077 0 0 0-.004.473c1.402 14.668 13.758 26.137 28.793 26.137s27.39-11.469 28.797-26.137a2.87 2.87 0 0 0-.004-.473c.129-.8.027-1.644-.36-2.425l-24.289-48.668h46.996v95.55h-38.543a8.398 8.398 0 0 0-8.398 8.399 4.004 4.004 0 0 0 4.004 4.004h97.055a4.004 4.004 0 0 0 4.003-4.004 8.4 8.4 0 0 0-8.398-8.399h-38.547v-95.55h46.598l-23.887 47.867a3.943 3.943 0 0 0-.359 2.426 2.068 2.068 0 0 0-.004.472c1.402 14.668 13.758 26.137 28.793 26.137s27.39-11.469 28.797-26.137c.015-.16.007-.316-.004-.472a3.974 3.974 0 0 0-.364-2.426zm-161.429.91l19.543-39.164 19.543 39.164h-39.086zm113.457-.801l19.543-39.164 19.543 39.164h-39.086zm0 0"/></symbol><symbol viewBox="0 0 512 512" id="bars" xmlns="http://www.w3.org/2000/svg"><path d="M491.318 235.318H20.682C9.26 235.318 0 244.577 0 256s9.26 20.682 20.682 20.682h470.636c11.423 0 20.682-9.259 20.682-20.682 0-11.422-9.259-20.682-20.682-20.682zm0-156.879H20.682C9.26 78.439 0 87.699 0 99.121c0 11.422 9.26 20.682 20.682 20.682h470.636c11.423 0 20.682-9.26 20.682-20.682 0-11.422-9.259-20.682-20.682-20.682zm0 313.758H20.682C9.26 392.197 0 401.456 0 412.879s9.26 20.682 20.682 20.682h470.636c11.423 0 20.682-9.259 20.682-20.682s-9.259-20.682-20.682-20.682z"/></symbol><symbol viewBox="4204.41 1695.8 109.11 180.69" id="beauty-and-care" xmlns="http://www.w3.org/2000/svg"><path d="M4212.46 1826.85c0 1.06-.42 2.09-1.17 2.84s-1.79 1.18-2.85 1.18-2.1-.43-2.85-1.18-1.18-1.79-1.18-2.84c0-1.06.43-2.1 1.18-2.85s1.79-1.18 2.85-1.18 2.1.43 2.85 1.18 1.17 1.79 1.17 2.85z"/><path d="M4303.28 1760.42a52.45 52.45 0 0 0-23.45-17.93v-11.34c0-2.22-1.8-4.03-4.02-4.03h-5.8v-9.23h5.28l7.73 5.14c1.55 1.03 3.75.82 5.07-.51l7.13-7.13a4.02 4.02 0 0 0 1.18-2.84c0-1.06-.43-2.1-1.18-2.85l-12.72-12.72a4.055 4.055 0 0 0-2.84-1.18h-40.07c-2.22 0-4.03 1.81-4.03 4.03v14.03c0 2.22 1.81 4.03 4.03 4.03h8.33v9.23h-5.8c-2.22 0-4.02 1.81-4.02 4.03v11.34a52.504 52.504 0 0 0-23.45 17.93c-6.7 9.1-10.24 19.89-10.24 31.2v21.37c0 2.22 1.81 4.02 4.03 4.02s4.02-1.8 4.02-4.02v-21.37c0-19.37 12.35-36.4 30.74-42.41h31.53c18.39 6.01 30.74 23.04 30.74 42.41v63.18c0 7.52-6.12 13.63-13.64 13.63h-65.73c-7.52 0-13.64-6.11-13.64-13.63V1840c0-2.22-1.8-4.02-4.02-4.02s-4.03 1.8-4.03 4.02v14.8c0 11.96 9.73 21.69 21.69 21.69h65.73c11.96 0 21.69-9.73 21.69-21.69v-63.18c0-11.31-3.54-22.1-10.24-31.2zm-41.32-42.53v9.23h-5.99v-9.23h5.99zm16.78-7.38c-.66-.44-1.44-.68-2.23-.68h-32.89v-5.98h34.37l8.69 8.7-1.95 1.95-5.99-3.99zm-6.96 30.65h-25.63v-5.99h25.63v5.99z"/><path d="M4293.87 1823.34v31.46c0 2.22-1.81 4.03-4.03 4.03s-4.02-1.81-4.02-4.03v-31.46c0-2.22 1.8-4.03 4.02-4.03 2.22 0 4.03 1.81 4.03 4.03zm0-12.28c0 1.06-.43 2.09-1.18 2.84s-1.79 1.18-2.85 1.18-2.09-.43-2.84-1.18-1.18-1.79-1.18-2.84c0-1.06.43-2.1 1.18-2.85s1.78-1.18 2.84-1.18c1.06 0 2.1.43 2.85 1.18s1.18 1.79 1.18 2.85z"/></symbol><symbol viewBox="3482 1754.667 107.667 67" id="burger" xmlns="http://www.w3.org/2000/svg"><path d="M3482 1754.667h12.333V1767H3482zm23 0h84.667V1767H3505zm-23 27.666h12.333v12.333H3482zm23 0h84.667v12.333H3505zM3482 1809.333h12.333v12.333H3482zm23 0h84.667v12.333H3505z"/></symbol><symbol viewBox="594.924 151.434 567.354 531.062" id="callcenter" xmlns="http://www.w3.org/2000/svg"><path d="M909.469 151.434c-85.463 0-161.102 42.666-206.884 107.768 9.475 6.184 18.71 14.662 27.644 25.559 34.157-51.074 89.383-86.908 153.283-94.609l25.954 43.923 25.955-43.923c98.224 11.836 176.297 89.91 188.14 188.13l-43.929 25.957 43.929 25.961c-7.916 65.666-45.526 122.204-98.878 156.088 3.397 7.747 5.312 15.67 5.651 23.835.249 5.97-.367 11.611-1.606 16.961 79.421-42.673 133.551-126.543 133.551-222.841-.001-139.404-113.406-252.809-252.81-252.809zm64.514 416.352c-58.28-46.835-74.576-23.814-101.018 2.625-18.461 18.471-65.178-20.095-105.517-60.437-40.342-40.345-78.898-87.056-60.44-105.52 26.446-26.439 49.463-42.746 2.611-101.007-46.831-58.283-78.053-13.537-103.67 12.078-29.573 29.562-1.558 139.733 107.324 248.629C822.168 673.04 932.335 701.034 961.89 671.482c25.612-25.619 70.372-56.836 12.093-103.696zm-177.492-123.98c0-51.805 60.645-61.029 60.645-81.246 0-9.81-7.85-13.928-15.112-13.928-13.349 0-20.798 14.912-20.798 14.912l-25.514-17.072s12.954-30.224 49.456-30.224c22.959 0 47.881 13.152 47.881 42.978 0 43.767-56.521 52.205-57.504 70.26h59.664v29.435h-97.147c-.983-5.492-1.571-10.395-1.571-15.115zm113.065-39.635l54.172-85.571h41.994v77.914h16.681v28.455h-16.681v33.956H971.77v-33.956h-62.214v-20.798zm62.214-7.657v-31.398c0-7.657 1.177-15.704 1.177-15.704h-.392s-2.94 8.636-6.87 14.523l-21.189 32.188v.395h27.274v-.004zm0 0"/></symbol><symbol viewBox="2630.741 217.753 511.999 450" id="cart" xmlns="http://www.w3.org/2000/svg"><path d="M2795.702 517.757h.023c.02 0 .039-.004.059-.004h271.957a15.003 15.003 0 0 0 14.422-10.879l60-210a15.003 15.003 0 0 0-2.445-13.152 15.006 15.006 0 0 0-11.977-5.969h-366.633l-10.722-48.254a15.004 15.004 0 0 0-14.645-11.746h-90c-8.285 0-15 6.715-15 15s6.715 15 15 15h77.969c1.898 8.551 51.312 230.918 54.156 243.711-15.941 6.93-27.125 22.824-27.125 41.289 0 24.812 20.188 45 45 45h272c8.285 0 15-6.715 15-15s-6.715-15-15-15h-272c-8.27 0-15-6.73-15-15 0-8.258 6.707-14.977 14.961-14.996zm312.152-210.004l-51.429 180h-248.653l-40-180h340.082zm-327.113 315c0 24.812 20.188 45 45 45s45-20.188 45-45-20.188-45-45-45-45 20.188-45 45zm45-15c8.27 0 15 6.73 15 15s-6.73 15-15 15-15-6.73-15-15 6.73-15 15-15zm167 15c0 24.812 20.188 45 45 45s45-20.188 45-45-20.188-45-45-45-45 20.188-45 45zm45-15c8.27 0 15 6.73 15 15s-6.73 15-15 15-15-6.73-15-15 6.73-15 15-15zm0 0"/></symbol><symbol viewBox="0 0 444.819 444.819" id="chevron-up" xmlns="http://www.w3.org/2000/svg"><path d="M433.968 278.657L248.387 92.79c-7.419-7.044-16.08-10.566-25.977-10.566-10.088 0-18.652 3.521-25.697 10.566L10.848 278.657C3.615 285.887 0 294.549 0 304.637c0 10.28 3.619 18.843 10.848 25.693l21.411 21.413c6.854 7.23 15.42 10.852 25.697 10.852 10.278 0 18.842-3.621 25.697-10.852L222.41 213.271 361.168 351.74c6.848 7.228 15.413 10.852 25.7 10.852 10.082 0 18.747-3.624 25.975-10.852l21.409-21.412c7.043-7.043 10.567-15.608 10.567-25.693 0-10.09-3.614-18.751-10.851-25.978z"/></symbol><symbol viewBox="0 0 512 512" id="close" xmlns="http://www.w3.org/2000/svg"><path d="M505.943 6.058c-8.077-8.077-21.172-8.077-29.249 0L6.058 476.693c-8.077 8.077-8.077 21.172 0 29.249A20.612 20.612 0 0 0 20.683 512a20.614 20.614 0 0 0 14.625-6.059L505.943 35.306c8.076-8.076 8.076-21.171 0-29.248z"/><path d="M505.942 476.694L35.306 6.059c-8.076-8.077-21.172-8.077-29.248 0-8.077 8.076-8.077 21.171 0 29.248l470.636 470.636a20.616 20.616 0 0 0 14.625 6.058 20.615 20.615 0 0 0 14.624-6.057c8.075-8.078 8.075-21.173-.001-29.25z"/></symbol><symbol viewBox="1289.796 139.286 446.986 512" id="delivery" xmlns="http://www.w3.org/2000/svg"><path d="M1426.085 410.286h180c8.293 0 15-6.711 15-15v-181c0-8.289-6.707-15-15-15h-45v-15c0-24.812-20.187-45-45-45-24.812 0-45 20.188-45 45v15h-45c-8.289 0-15 6.711-15 15v181c0 8.289 6.711 15 15 15zm75-226c0-8.277 6.738-15 15-15s15 6.723 15 15v15h-30v-15zm0 0"/><path d="M1734.612 387.52c-2.695-4.48-7.589-7.234-12.832-7.234a71.068 71.068 0 0 0-62.945 38.078l-46.012 87.813c-7.82 14.882-23.086 24.109-39.871 24.109h-101.867c-8.289 0-15-6.711-15-15s6.711-15 15-15h101.863a14.982 14.982 0 0 0 13.305-8.043c2.598-4.961 10.445-19.941 17.191-32.816a13.08 13.08 0 0 0-.394-12.844 13.093 13.093 0 0 0-11.199-6.297h-155.922c-20.039 0-38.848 7.809-53.028 21.973l-88.71 88.711c-5.86 5.859-5.86 15.351 0 21.211l75 74.707c2.929 2.929 6.769 4.398 10.605 4.398s7.676-1.469 10.605-4.398l56.895-56.602h125.652c39.172 0 74.825-21.562 93.02-56.266l69.082-131.761a14.948 14.948 0 0 0-.438-14.739zm0 0"/></symbol><symbol viewBox="0 0 40 28" id="delivery-2" xmlns="http://www.w3.org/2000/svg"><image width="40" height="28"/></symbol><symbol viewBox="0 0 60.017 60.017" id="edit" xmlns="http://www.w3.org/2000/svg"><path d="M59.144 3.731L56.294.88a2.991 2.991 0 0 0-4.221.001l-3.126 3.126H0v56h56v-48.91l.305-.305 2.839-2.839a2.989 2.989 0 0 0 0-4.222zM20.047 36.759l3.22 3.22-4.428 1.208 1.208-4.428zm32.015-24.553L47.82 7.964l1.414-1.414 4.243 4.242-1.415 1.414zm-1.414 1.414L25.192 39.076l-4.242-4.242L46.406 9.378l4.242 4.242zM54 13.097v44.91H2v-52h44.947l-28.118 28.12-.188.188-2.121 7.779-1.226 1.226a.999.999 0 1 0 1.414 1.414l1.226-1.226 7.779-2.123 26.351-26.35.447-.447L54 13.097zm3.73-6.558l-2.839 2.839-4.243-4.243 2.839-2.839a.987.987 0 0 1 1.393 0l2.85 2.85a.986.986 0 0 1 0 1.393z"/></symbol><symbol viewBox="2987.125 1690.66 156.14 140.06" id="endocrine-system" xmlns="http://www.w3.org/2000/svg"><path d="M3140.305 1711.23c-1.98-2.01-4.4-3.05-7.28-3.05h-38.68v-12.78c0-2.62-2.03-4.74-4.65-4.74h-49a4.73 4.73 0 0 0-4.74 4.74v12.78h-38.6c-2.87 0-5.3 1.04-7.27 3.05-1.92 1.96-2.96 4.4-2.96 7.19v102.06c0 2.79.99 5.27 2.96 7.28 1.92 1.97 4.4 2.96 7.27 2.96h135.67c2.88 0 5.35-.99 7.28-2.96 1.96-2.01 2.96-4.49 2.96-7.28v-102.06c0-2.79-1.04-5.23-2.96-7.19zm-94.95-11.17h39.68v8.12h-39.68v-8.12zm88.51 120.42c0 .59-.25.85-.84.85h-135.67c-.42 0-.92-.51-.92-.85v-102.06c0-.59.33-.84.92-.84h135.67c.59 0 .84.25.84.84v102.06z"/><path d="M3093.025 1758.171v20h-17.83v17.83h-20v-17.83h-17.83v-20h17.83v-17.84h20v17.84z"/></symbol><symbol viewBox="0 0 511.999 511.999" id="eye" xmlns="http://www.w3.org/2000/svg"><path d="M508.745 246.041c-4.574-6.257-113.557-153.206-252.748-153.206S7.818 239.784 3.249 246.035a16.896 16.896 0 0 0 0 19.923c4.569 6.257 113.557 153.206 252.748 153.206s248.174-146.95 252.748-153.201a16.875 16.875 0 0 0 0-19.922zM255.997 385.406c-102.529 0-191.33-97.533-217.617-129.418 26.253-31.913 114.868-129.395 217.617-129.395 102.524 0 191.319 97.516 217.617 129.418-26.253 31.912-114.868 129.395-217.617 129.395z"/><path d="M255.997 154.725c-55.842 0-101.275 45.433-101.275 101.275s45.433 101.275 101.275 101.275S357.272 311.842 357.272 256s-45.433-101.275-101.275-101.275zm0 168.791c-37.23 0-67.516-30.287-67.516-67.516s30.287-67.516 67.516-67.516 67.516 30.287 67.516 67.516-30.286 67.516-67.516 67.516z"/></symbol><symbol viewBox="3968.794 825.347 154.027 284.898" id="facebook-logo" xmlns="http://www.w3.org/2000/svg"><path d="M4117.034 825.403l-36.949-.056c-41.506 0-68.336 27.524-68.336 70.115v32.333h-37.153a5.802 5.802 0 0 0-5.802 5.802v46.848a5.81 5.81 0 0 0 5.802 5.802h37.153v118.197c0 3.197 2.604 5.802 5.817 5.802h48.453c3.212 0 5.816-2.605 5.816-5.802V986.246h43.432a5.805 5.805 0 0 0 5.806-5.802l.026-46.848a5.865 5.865 0 0 0-1.708-4.109 5.796 5.796 0 0 0-4.109-1.693h-43.447v-27.409c0-13.171 3.142-19.858 20.292-19.858l24.893-.015a5.801 5.801 0 0 0 5.802-5.802v-43.488a5.812 5.812 0 0 0-5.788-5.819zm0 0"/></symbol><symbol viewBox="0 0 402.577 402.577" id="filter" xmlns="http://www.w3.org/2000/svg"><path d="M400.858 11.427C397.617 4.006 392.008.295 384.004.291H18.564c-7.993 0-13.61 3.715-16.846 11.136-3.234 7.801-1.903 14.467 3.999 19.985l140.757 140.753V310.92c0 4.955 1.809 9.232 5.424 12.854l73.085 73.083c3.429 3.614 7.71 5.428 12.851 5.428 2.282 0 4.66-.479 7.135-1.43 7.426-3.238 11.14-8.851 11.14-16.845V172.166L396.861 31.413c5.904-5.518 7.232-12.182 3.997-19.986z"/></symbol><symbol viewBox="0 0 341.333 341.333" id="grid-view" xmlns="http://www.w3.org/2000/svg"><path d="M128 128h85.333v85.333H128zM0 0h85.333v85.333H0zm128 256h85.333v85.333H128zM0 128h85.333v85.333H0zm0 128h85.333v85.333H0zM256 0h85.333v85.333H256zM128 0h85.333v85.333H128zm128 128h85.333v85.333H256zm0 128h85.333v85.333H256z"/></symbol><symbol viewBox="5654.567 1692.674 281.412 205.4" id="health-products" xmlns="http://www.w3.org/2000/svg"><path d="M5702.599 1786.552l5.829 5.829 10.763-10.761 51.81 51.81-45.667 45.667c-6.92 6.92-16.12 10.731-25.906 10.731-9.786 0-18.986-3.811-25.906-10.731-6.917-6.92-10.729-16.12-10.729-25.904 0-9.786 3.809-18.986 10.729-25.906l27.132-27.132-5.832-5.829-27.129 27.13c-17.5 17.5-17.5 45.974 0 63.472 8.476 8.476 19.748 13.146 31.734 13.146 11.989 0 23.259-4.67 31.737-13.146l51.496-51.498-63.47-63.47-16.591 16.592zm0 0zm220.257 34.904l-51.496-51.496-23.243 23.244 5.829 5.832 17.415-17.415 45.665 45.667c6.92 6.92 10.73 16.12 10.73 25.904 0 9.786-3.811 18.986-10.73 25.906-6.92 6.92-16.12 10.731-25.906 10.731-9.786 0-18.981-3.811-25.901-10.731l-45.667-45.667 26.621-26.621-5.83-5.831-32.452 32.452 51.496 51.498c8.476 8.476 19.746 13.146 31.732 13.146 11.989 0 23.261-4.67 31.737-13.146 17.498-17.499 17.498-45.972 0-63.473zm0 0zm-58.441-103.243v-14.439h-14.439c-21.446 0-39.975 12.74-48.415 31.05-8.442-24.5-31.731-42.15-59.063-42.15h-16.362v16.364c0 34.436 28.014 62.451 62.448 62.451h8.118v52.786h8.247v-52.786h6.192c29.375 0 53.274-23.901 53.274-53.276zm-14.439-6.192h6.194v6.192c0 24.83-20.201 45.029-45.029 45.029h-.363l18.827-18.825-5.831-5.832-18.825 18.825v-.361c0-24.829 20.199-45.028 45.027-45.028zm-115.595-2.983v-8.118h8.118c29.888 0 54.204 24.315 54.204 54.203v2.286l-18.827-18.825-5.83 5.829 18.825 18.827h-2.287c-29.886.002-54.203-24.313-54.203-54.202zm0 0z"/><path d="M5699.43 1884.331c-8.318 0-16.137-3.24-22.018-9.121l5.83-5.831c4.324 4.324 10.074 6.705 16.188 6.705s11.862-2.381 16.186-6.705l19.429-19.428 5.831 5.832-19.428 19.428c-5.882 5.88-13.701 9.12-22.018 9.12zm45.332-32.437l-5.83-5.829 5.83-5.831 5.831 5.831-5.831 5.829zm9.719-9.717l-5.831-5.831 5.831-5.829 5.83 5.831-5.83 5.829zm0 0zm136.638 42.154c-8.317 0-16.135-3.24-22.015-9.121l5.832-5.831a22.73 22.73 0 0 0 16.184 6.705 22.741 22.741 0 0 0 16.188-6.705 22.784 22.784 0 0 0 6.083-10.915l8.028 1.885a31.024 31.024 0 0 1-8.279 14.861c-5.885 5.881-13.703 9.121-22.021 9.121zm31.112-30.249l-8.242-.232a23.081 23.081 0 0 0-.854-6.918l7.935-2.239a31.342 31.342 0 0 1 1.177 8.5 43.93 43.93 0 0 1-.016.889zm-10.808-11.469a22.785 22.785 0 0 0-4.116-5.608l5.831-5.832a31.082 31.082 0 0 1 5.602 7.637l-7.317 3.803zm0 0zm-135.573-108.894a39.962 39.962 0 0 0-8.358-9.339l5.207-6.394a48.084 48.084 0 0 1 10.083 11.27l-6.932 4.463zm-12.407-12.239a39.701 39.701 0 0 0-6.667-3.338l2.98-7.688a47.784 47.784 0 0 1 8.055 4.036l-4.368 6.99zm-11.407-4.837a39.404 39.404 0 0 0-7.373-1.101l.445-8.234a47.82 47.82 0 0 1 8.914 1.331l-1.986 8.004zm0 0zm84.437 30.823l-5.402-6.231c5.655-4.904 9.303-11.656 10.273-19.018l8.176 1.078c-1.234 9.363-5.867 17.944-13.047 24.171zm0 0z"/></symbol><symbol viewBox="4374.299 334.189 156.847 149.713" id="heart" xmlns="http://www.w3.org/2000/svg"><path d="M4486.895 334.189c-13.352 0-25.851 6.046-34.172 16.174-8.321-10.13-20.821-16.174-34.172-16.174-24.399 0-44.251 19.85-44.251 44.251 0 19.106 11.394 41.206 33.862 65.685 17.29 18.836 36.101 33.423 41.454 37.444l3.105 2.333 3.107-2.333c5.353-4.021 24.164-18.606 41.456-37.444 22.469-24.479 33.862-46.579 33.862-65.685 0-24.401-19.852-44.251-44.251-44.251zm2.77 102.942c-14.223 15.494-29.525 28.02-36.944 33.792-7.418-5.772-22.718-18.298-36.941-33.792-20.372-22.193-31.14-42.489-31.14-58.691 0-18.698 15.211-33.909 33.91-33.909 12.304 0 23.666 6.706 29.65 17.502l4.522 8.159 4.523-8.159c5.984-10.796 17.345-17.502 29.649-17.502 18.698 0 33.91 15.211 33.91 33.909 0 16.203-10.767 36.499-31.139 58.691zm0 0"/></symbol><symbol viewBox="2269.629 1699.022 191.338 142.166" id="heart-cardio" xmlns="http://www.w3.org/2000/svg"><path d="M2433.588 1712.212c-8.505-8.507-19.815-13.19-31.843-13.19-12.027 0-23.335 4.683-31.84 13.19l-3.575 3.575-3.575-3.575c-8.507-8.507-19.816-13.19-31.844-13.19s-23.335 4.683-31.841 13.19c-17.56 17.556-17.56 46.123 0 63.681l63.903 63.903a4.745 4.745 0 0 0 6.712.002l63.903-63.903c8.505-8.505 13.189-19.815 13.189-31.843 0-12.027-4.684-23.335-13.189-31.84zm-6.71 56.973l-60.548 60.55-60.55-60.55c-13.86-13.86-13.86-36.408 0-50.265 6.712-6.714 15.638-10.41 25.131-10.41s18.419 3.696 25.135 10.41l6.928 6.93a4.742 4.742 0 0 0 6.708 0l6.93-6.93c6.714-6.714 15.64-10.41 25.134-10.41 9.493 0 18.419 3.696 25.133 10.41 13.857 13.857 13.857 36.405-.001 50.265zm0 0"/><path d="M2291.768 1758.958h-17.394a4.743 4.743 0 0 0-4.745 4.745 4.743 4.743 0 0 0 4.745 4.743h17.394a4.742 4.742 0 0 0 4.743-4.743 4.743 4.743 0 0 0-4.743-4.745zm0 0"/><path d="M2440.408 1759.113h-45.403l-7.065-15.541c-.533-1.174-1.693-1.89-3.013-1.851a3.16 3.16 0 0 0-2.845 2.102l-14.44 40.693-17.556-48.617a3.16 3.16 0 0 0-2.826-2.084c-1.367-.064-2.465.656-3.01 1.813l-11.796 25.067h-39.106a3.162 3.162 0 0 0-3.162 3.162c0 1.747 2.081 3.009 3.828 3.009h41.114c1.226 0 1.676-.554 2.197-1.662l9.405-19.982 17.967 49.755a3.164 3.164 0 0 0 2.974 2.087h.008a3.159 3.159 0 0 0 2.971-2.104l14.776-41.641 4.666 10.264c.511 1.131 2.305 1.702 3.545 1.702h47.439c1.745 0 2.494-1.264 2.494-3.009a3.164 3.164 0 0 0-3.162-3.163zm0 0"/><path d="M2456.225 1757.377h-14.232a4.743 4.743 0 1 0 0 9.487h14.232a4.743 4.743 0 1 0 0-9.487zm0 0"/></symbol><symbol viewBox="0 0 460.298 460.297" id="home" xmlns="http://www.w3.org/2000/svg"><path d="M230.149 120.939L65.986 256.274c0 .191-.048.472-.144.855-.094.38-.144.656-.144.852v137.041c0 4.948 1.809 9.236 5.426 12.847 3.616 3.613 7.898 5.431 12.847 5.431h109.63V303.664h73.097v109.64h109.629c4.948 0 9.236-1.814 12.847-5.435 3.617-3.607 5.432-7.898 5.432-12.847V257.981c0-.76-.104-1.334-.288-1.707L230.149 120.939z"/><path d="M457.122 225.438L394.6 173.476V56.989c0-2.663-.856-4.853-2.574-6.567-1.704-1.712-3.894-2.568-6.563-2.568h-54.816c-2.666 0-4.855.856-6.57 2.568-1.711 1.714-2.566 3.905-2.566 6.567v55.673l-69.662-58.245c-6.084-4.949-13.318-7.423-21.694-7.423-8.375 0-15.608 2.474-21.698 7.423L3.172 225.438c-1.903 1.52-2.946 3.566-3.14 6.136-.193 2.568.472 4.811 1.997 6.713l17.701 21.128c1.525 1.712 3.521 2.759 5.996 3.142 2.285.192 4.57-.476 6.855-1.998L230.149 95.817l197.57 164.741c1.526 1.328 3.521 1.991 5.996 1.991h.858c2.471-.376 4.463-1.43 5.996-3.138l17.703-21.125c1.522-1.906 2.189-4.145 1.991-6.716-.195-2.563-1.242-4.609-3.141-6.132z"/></symbol><symbol viewBox="6031.609 1707.622 247.015 211.474" id="homeopathy" xmlns="http://www.w3.org/2000/svg"><path d="M6277.684 1830.719a4.707 4.707 0 0 0-.042-.443l-12.381-86.151a4.827 4.827 0 0 0-6.575-3.791l-56.979 22.908a4.825 4.825 0 1 0 3.6 8.953l51.277-20.616 11.425 79.496c.006.224.028.449.066.674a64.34 64.34 0 0 1-7.7 42.851c-8.595 14.887-22.488 25.526-39.123 29.958-16.639 4.434-34.027 2.127-48.962-6.495-.103-.06-.209-.11-.315-.161a87.371 87.371 0 0 0 9.023-7.886l56.484-15.135a4.825 4.825 0 0 0-2.497-9.322l-43.462 11.646a87.369 87.369 0 0 0 11.065-23.322l38.776-10.39a4.825 4.825 0 1 0-2.497-9.322l-28.531 7.645 10.729-18.583 22.672-6.075a4.825 4.825 0 0 0-2.497-9.322l-13.352 3.578 10.267-17.783a4.824 4.824 0 0 0-1.766-6.591 4.824 4.824 0 0 0-6.591 1.766l-10.267 17.782-3.578-13.352a4.825 4.825 0 1 0-9.321 2.498l6.075 22.673-6.278 10.874c.185-15.445-3.767-30.707-11.687-44.425-9.974-17.275-25.713-30.69-44.34-37.798l-.092-.039-21.832-8.861a4.825 4.825 0 1 0-3.629 8.942l21.633 8.78c.098.045.198.086.299.125 16.639 6.301 30.705 18.261 39.604 33.676 10.359 17.943 13.091 38.858 7.694 58.893-4.979 18.481-16.33 34.167-32.183 44.648l-8.097-14.025 17.555-65.515a4.825 4.825 0 1 0-9.321-2.498l-15.057 56.195-17.863-30.94 12.179-45.451a4.826 4.826 0 0 0-9.321-2.498l-9.681 36.13-14.081-24.39 7.334-27.372a4.826 4.826 0 0 0-9.321-2.498l-4.837 18.051-13.34-23.105a4.824 4.824 0 0 0-6.591-1.766 4.824 4.824 0 0 0-1.766 6.591l13.34 23.105-18.05-4.837a4.825 4.825 0 1 0-2.497 9.322l27.372 7.334 14.081 24.389-36.128-9.68a4.825 4.825 0 1 0-2.497 9.322l45.45 12.178 17.863 30.94-56.193-15.057a4.826 4.826 0 0 0-2.497 9.322l65.515 17.554 8.096 14.023c-36.46 18.172-81.332 5.084-101.912-30.561-8.996-15.581-12.292-33.924-9.281-51.65.041-.239.063-.478.066-.716l13.779-95.884 31.963 12.973a4.826 4.826 0 0 0 3.629-8.942l-37.676-15.292a4.828 4.828 0 0 0-6.59 3.785l-14.746 102.605a4.761 4.761 0 0 0-.044.487c-3.203 19.741.532 40.119 10.543 57.458 16.12 27.922 45.492 43.539 75.686 43.539a87.012 87.012 0 0 0 39.413-9.437l5.93 10.271a4.824 4.824 0 0 0 6.592 1.766 4.824 4.824 0 0 0 1.766-6.591l-2.199-3.808c10.662 5.535 22.29 8.366 34.058 8.366a74.6 74.6 0 0 0 19.222-2.532c19.129-5.098 35.11-17.335 44.995-34.458a74.037 74.037 0 0 0 8.947-48.706z"/><path d="M6107.927 1739.854a4.858 4.858 0 0 0 3.411-1.414 4.861 4.861 0 0 0 1.414-3.416 4.85 4.85 0 0 0-1.414-3.411c-.897-.897-2.142-1.414-3.411-1.414s-2.514.516-3.411 1.414a4.871 4.871 0 0 0-1.414 3.411 4.87 4.87 0 0 0 1.414 3.416 4.86 4.86 0 0 0 3.411 1.414zM6237.953 1779.645a4.819 4.819 0 0 0 3.908 1.99 4.825 4.825 0 0 0 3.901-7.66l-.029-.04a4.826 4.826 0 0 0-7.808 5.67l.028.04z"/></symbol><symbol viewBox="4581.895 1693.346 184.989 184.975" id="hygiene" xmlns="http://www.w3.org/2000/svg"><path d="M4763.801 1764.244c-5.106-.005-9.243-4.143-9.25-9.249a3.083 3.083 0 1 0-6.166 0c-.006 5.107-4.143 9.245-9.25 9.249a3.083 3.083 0 1 0 0 6.166 9.26 9.26 0 0 1 9.25 9.249 3.083 3.083 0 0 0 6.166 0 9.26 9.26 0 0 1 9.25-9.249 3.083 3.083 0 0 0 0-6.166zm-12.332 6.175a15.538 15.538 0 0 0-3.093-3.091 15.47 15.47 0 0 0 3.093-3.093 15.417 15.417 0 0 0 3.093 3.093 15.512 15.512 0 0 0-3.093 3.091zm0 0z"/><path d="M4751.469 1791.993h-31.042l21.645-67.586a3.082 3.082 0 0 0-5.158-3.074 10.413 10.413 0 0 1-7.909 3.234h-.003c-15.167 0-36.757-22.266-36.974-22.489a25.12 25.12 0 0 0-19.218-8.731c-12.665.485-21.992 11.64-22.381 12.116a3.143 3.143 0 0 0-.401.626c-3.875 8.063-24.935 11.08-37.301 11.086a3.08 3.08 0 0 0-2.969 3.912l19.777 70.906h-32.224c-8.51.01-15.405 6.907-15.416 15.416v70.913h184.989v-70.913c-.01-8.509-6.905-15.407-15.415-15.416zm-96.078-82.848c1.301-1.473 8.617-9.289 17.656-9.635a19.045 19.045 0 0 1 14.537 6.837c.955.997 23.629 24.386 41.418 24.386a18.451 18.451 0 0 0 4.763-.6l-27.71 86.525h-9.353l8.45-39.434a3.083 3.083 0 0 0-6.026-1.294l-8.728 40.729h-9.479l8.869-79.822a3.085 3.085 0 0 0-2.725-3.405 3.12 3.12 0 0 0-3.405 2.724l-8.945 80.503h-13.251l-14.89-68.486a3.084 3.084 0 1 0-6.027 1.313l14.602 67.173h-12.333l-26.053-93.416c9.701-.426 32.648-2.648 38.63-14.098zm62.163 91.82v15.693h-5.024l5.024-15.693zm-81.139 15.693h-5.189v-18.499h.03l5.159 18.499zm124.303 55.497h-172.657v-64.746a9.26 9.26 0 0 1 9.249-9.249h27.749v24.665h98.661v-24.665h27.749a9.262 9.262 0 0 1 9.25 9.249v64.746zm0 0z"/><path d="M4618.893 1859.822h-12.333a3.083 3.083 0 1 0 0 6.166h12.333a3.083 3.083 0 0 0 0-6.166zm0 0zm24.665 0h-12.333a3.083 3.083 0 1 0 0 6.166h12.333a3.083 3.083 0 0 0 0-6.166zm0 0zm24.665 0h-12.333a3.083 3.083 0 1 0 0 6.166h12.333a3.083 3.083 0 0 0 0-6.166zm0 0zm24.666 0h-12.333a3.083 3.083 0 1 0 0 6.166h12.333a3.083 3.083 0 0 0 0-6.166zm0 0zm24.665 0h-12.333a3.083 3.083 0 1 0 0 6.166h12.333a3.083 3.083 0 0 0 0-6.166zm0 0zm24.665 0h-12.333a3.083 3.083 0 1 0 0 6.166h12.333a3.083 3.083 0 0 0 0-6.166zm0 0zm-147.991-123.326h6.166v6.166h-6.166zm0 12.332h6.166v6.166h-6.166zm-6.167-6.166h6.166v6.166h-6.166zm12.333 0h6.166v6.166h-6.166z"/></symbol><symbol viewBox="4024.524 1693.344 139.05 177.986" id="immunity" xmlns="http://www.w3.org/2000/svg"><path d="M4161.294 1729.08l-66.14-35.24a4.384 4.384 0 0 0-4.09.02l-64.32 35.25c-1.37.75-2.22 2.2-2.22 3.77v46.04c.04 38.24 22.7 72.85 57.74 88.16l8.92 3.9c.55.23 1.12.35 1.72.35.59 0 1.16-.12 1.7-.35l10.05-4.34c35.79-15.03 58.91-49.82 58.92-88.64v-45.12c0-1.6-.87-3.05-2.28-3.8zm-6.31 48.92c-.01 35.37-21.08 67.05-53.71 80.75l-8.36 3.61-7.22-3.15c-31.91-13.95-52.55-45.46-52.59-80.29v-43.5l60.05-32.92 61.83 32.95V1778z"/><path d="M4124.049 1783.33c0 2.21-1.79 4-4 4h-22v22c0 2.21-1.79 4-4 4s-4-1.79-4-4v-22h-22c-2.21 0-4-1.79-4-4s1.79-4 4-4h22v-22c0-2.21 1.79-4 4-4s4 1.79 4 4v22h22c2.21 0 4 1.79 4 4z"/></symbol><symbol viewBox="4338.653 853.329 258.927 258.927" id="instagram-logo" xmlns="http://www.w3.org/2000/svg"><path d="M4571.655 853.329h-207.078c-14.29 0-25.925 11.635-25.925 25.925v207.077c0 14.289 11.635 25.925 25.925 25.925h207.078c14.289 0 25.924-11.636 25.924-25.925V879.254c.001-14.289-11.635-25.925-25.924-25.925zm-103.539 77.694c28.515 0 51.769 23.255 51.769 51.769s-23.254 51.769-51.769 51.769c-28.514 0-51.769-23.255-51.769-51.769s23.255-51.769 51.769-51.769zm-97.097 155.308c-3.852 0-6.441-2.589-6.441-6.441V969.83h27.171c-1.326 3.916-1.326 9.111-1.326 12.962 0 42.739 34.955 77.694 77.694 77.694 42.739 0 77.694-34.955 77.694-77.694 0-3.851 0-9.046-1.327-12.962h27.172v110.06c0 3.852-2.59 6.441-6.441 6.441h-194.196zm200.636-174.711c0 3.852-2.59 6.44-6.441 6.44h-25.925c-3.852 0-6.44-2.589-6.44-6.44v-25.925c0-3.851 2.589-6.44 6.44-6.44h25.925c3.852 0 6.441 2.589 6.441 6.44v25.925zm0 0"/></symbol><symbol viewBox="0 0 23.625 23.625" id="instruction" xmlns="http://www.w3.org/2000/svg"><path d="M11.812 0C5.289 0 0 5.289 0 11.812s5.289 11.813 11.812 11.813 11.813-5.29 11.813-11.813S18.335 0 11.812 0zm2.459 18.307c-.608.24-1.092.422-1.455.548a3.838 3.838 0 0 1-1.262.189c-.736 0-1.309-.18-1.717-.539s-.611-.814-.611-1.367c0-.215.015-.435.045-.659a8.23 8.23 0 0 1 .147-.759l.761-2.688c.067-.258.125-.503.171-.731.046-.23.068-.441.068-.633 0-.342-.071-.582-.212-.717-.143-.135-.412-.201-.813-.201-.196 0-.398.029-.605.09-.205.063-.383.12-.529.176l.201-.828c.498-.203.975-.377 1.43-.521a4.225 4.225 0 0 1 1.29-.218c.731 0 1.295.178 1.692.53.395.353.594.812.594 1.376 0 .117-.014.323-.041.617a4.129 4.129 0 0 1-.152.811l-.757 2.68a7.582 7.582 0 0 0-.167.736 3.892 3.892 0 0 0-.073.626c0 .356.079.599.239.728.158.129.435.194.827.194.185 0 .392-.033.626-.097.232-.064.4-.121.506-.17l-.203.827zm-.134-10.878a1.807 1.807 0 0 1-1.275.492c-.496 0-.924-.164-1.28-.492a1.57 1.57 0 0 1-.533-1.193c0-.465.18-.865.533-1.196a1.812 1.812 0 0 1 1.28-.497c.497 0 .923.165 1.275.497.353.331.53.731.53 1.196 0 .467-.177.865-.53 1.193z"/></symbol><symbol viewBox="1054.164 1720.103 58.751 100.004" id="left-arrow-chevron" xmlns="http://www.w3.org/2000/svg"><path d="M1100.262 1818.509c1.029 1.03 2.403 1.598 3.868 1.598s2.839-.568 3.868-1.598l3.277-3.276a5.477 5.477 0 0 0 0-7.737l-37.37-37.37 37.412-37.412a5.436 5.436 0 0 0 1.598-3.868 5.436 5.436 0 0 0-1.598-3.87l-3.277-3.276c-1.03-1.03-2.403-1.598-3.868-1.598s-2.839.568-3.868 1.598l-44.545 44.543a5.437 5.437 0 0 0-1.595 3.88 5.438 5.438 0 0 0 1.595 3.884l44.503 44.502z"/></symbol><symbol viewBox="0 0 433.5 433.5" id="list-view" xmlns="http://www.w3.org/2000/svg"><path d="M0 267.75h102v-102H0v102zm0 127.5h102v-102H0v102zm0-255h102v-102H0v102zm127.5 127.5h306v-102h-306v102zm0 127.5h306v-102h-306v102zm0-357v102h306v-102h-306z"/></symbol><symbol viewBox="1882.796 237.452 512 345.668" id="loyalty-program" xmlns="http://www.w3.org/2000/svg"><path d="M1999.398 360.698c-4.329 0-8.661 3.934-8.661 17.117 0 13.188 4.332 17.121 8.661 17.121 4.328 0 8.656-3.933 8.656-17.121 0-13.183-4.328-17.117-8.656-17.117zm100.945 99.176c4.332 0 8.66-3.938 8.66-17.121 0-13.184-4.328-17.121-8.66-17.121-4.328 0-8.656 3.937-8.656 17.121 0 13.183 4.328 17.121 8.656 17.121zm0 0"/><path d="M2329.796 237.452h-382c-35.84 0-65 29.16-65 65V518.12c0 35.84 29.16 65 65 65h382c35.84 0 65-29.16 65-65V302.452c0-35.844-29.16-65-65-65zm-143 155.832v-30h128v30h-128zm128 34v30h-128v-30h128zm-234.523-85.871h33.253l-94.058 137.742h-33.254l94.059-137.742zm-117.477 36.402c0-24.398 15.742-38.371 36.602-38.371 20.859 0 36.601 13.973 36.601 38.371 0 24.598-15.742 38.375-36.601 38.375-20.86 0-36.602-13.777-36.602-38.375zm137.547 26.567c20.859 0 36.601 13.972 36.601 38.371 0 24.597-15.742 38.375-36.601 38.375-20.856 0-36.602-13.778-36.602-38.375 0-24.399 15.743-38.371 36.602-38.371zm0 0"/></symbol><symbol viewBox="4823.279 1691.79 187.041 187.05" id="medical-products" xmlns="http://www.w3.org/2000/svg"><path d="M4882.17 1697.99v16.02c0 1.99 1.63 3.61 3.62 3.62h62.01a3.63 3.63 0 0 0 3.61-3.62v-16.02h-69.24zm68.73 16.02a3.111 3.111 0 0 1-3.11 3.1h-62c-1.71 0-3.1-1.39-3.1-3.1v-15.5h68.21v15.5z"/><path d="M4882.17 1697.99v16.02c0 1.99 1.63 3.61 3.62 3.62h62.01a3.63 3.63 0 0 0 3.61-3.62v-16.02h-69.24zm68.21 16.02c0 1.42-1.16 2.58-2.59 2.58h-62c-1.42 0-2.58-1.16-2.58-2.58v-14.98h67.17v14.98zm-68.21-16.02v16.02c0 1.99 1.63 3.61 3.62 3.62h62.01a3.63 3.63 0 0 0 3.61-3.62v-16.02h-69.24zm68.21 16.02c0 1.42-1.16 2.58-2.59 2.58h-62c-1.42 0-2.58-1.16-2.58-2.58v-14.98h67.17v14.98zm-68.21-16.02v16.02c0 1.99 1.63 3.61 3.62 3.62h62.01a3.63 3.63 0 0 0 3.61-3.62v-16.02h-69.24zm68.21 16.02c0 1.42-1.16 2.58-2.59 2.58h-62c-1.42 0-2.58-1.16-2.58-2.58v-14.98h67.17v14.98z"/><path d="M5005.62 1696.46c-3.41-3.44-8.42-5.15-13.22-4.55-4.84.58-9.23 3.43-11.72 7.62l-11.79 19.64-17.48 17.48v-13.55a9.834 9.834 0 0 0 6.2-9.09v-15.5c0-3.7-3.02-6.72-6.71-6.72h-68.21c-3.7 0-6.71 3.02-6.72 6.72v15.5a9.84 9.84 0 0 0 6.2 9.09v82.79l-55.98 55.99a9.907 9.907 0 0 0-2.16 10.8c1.53 3.71 5.11 6.13 9.17 6.16h.01c2.66 0 5.15-1.04 7.02-2.92l41.94-41.94v10.24c0 19.09 15.53 34.62 34.62 34.62s34.62-15.53 34.62-34.62v-79.48l31.53-31.53 19.64-11.78c4.24-2.55 7.02-6.83 7.62-11.74.6-4.91-1.07-9.74-4.58-13.23zm-123.45 127.29l-47.05 47.05c-.51.51-1.21.8-1.93.8a2.715 2.715 0 0 1-2.69-2.68c0-.72.29-1.42.8-1.93l50.87-50.87v7.63zm99.12-97.98l-4.95-4.95 10.54-17.57a8.766 8.766 0 0 1 10.32-3.74c3.86 1.34 6.31 5.25 5.82 9.31a8.738 8.738 0 0 1-4.17 6.41l-17.56 10.54zm-37.11 118.45c-.02 15.08-12.3 27.37-27.39 27.38-15.08-.01-27.37-12.3-27.38-27.38v-30.49h14.46v8.27h-2.58c-1.99 0-3.62 1.62-3.62 3.62 0 1.99 1.63 3.61 3.62 3.61h2.58v8.27h-2.58c-1.99 0-3.62 1.62-3.62 3.62 0 1.99 1.63 3.62 3.62 3.62h2.58v8.26h-2.58c-1.99 0-3.62 1.62-3.62 3.62 0 1.99 1.63 3.62 3.62 3.62h6.2c2 0 3.62-1.63 3.62-3.62v-42.89h33.07v30.49zm0-37.72h-33.07v-73.89c0-2-1.62-3.62-3.62-3.62h-6.2c-1.99 0-3.62 1.62-3.62 3.62 0 1.99 1.63 3.62 3.62 3.62h2.58v8.26h-2.58c-1.99 0-3.62 1.63-3.62 3.62 0 2 1.63 3.62 3.62 3.62h2.58v8.26h-2.58c-1.99 0-3.62 1.63-3.62 3.62 0 2 1.63 3.62 3.62 3.62h2.58v8.27h-2.58c-1.99 0-3.62 1.62-3.62 3.61 0 2 1.63 3.62 3.62 3.62h2.58v8.27h-2.58c-1.99 0-3.62 1.62-3.62 3.62 0 1.99 1.63 3.61 3.62 3.61h2.58v8.27h-14.46v-82.67h54.77v82.67zm3.62-88.87h-62.01c-1.99-.01-3.62-1.63-3.62-3.62v-16.02h69.24v16.02a3.63 3.63 0 0 1-3.61 3.62zm3.61 36.88v-7.63l20.38-20.38 3.81 3.82-24.19 24.19z"/></symbol><symbol viewBox="6393.28 1700.68 195.57 195.57" id="medication-guide" xmlns="http://www.w3.org/2000/svg"><path d="M6585.08 1700.68h-188.04a3.77 3.77 0 0 0-3.76 3.77v188.04c0 2.07 1.689 3.76 3.76 3.76h188.04a3.77 3.77 0 0 0 3.77-3.76v-188.04c0-2.08-1.69-3.77-3.77-3.77zm-3.76 188.04h-180.51v-180.51h180.51v180.51z"/><path d="M6549.93 1753.08c0 2.07-1.68 3.76-3.74 3.76h-76.44c-2.07 0-3.76-1.69-3.76-3.76a3.77 3.77 0 0 1 3.76-3.77h76.44c2.06 0 3.74 1.69 3.74 3.77zm0 48.63c0 2.08-1.68 3.77-3.74 3.77h-76.44a3.77 3.77 0 0 1-3.76-3.77c0-2.07 1.69-3.76 3.76-3.76h76.44c2.06 0 3.74 1.69 3.74 3.76zm0 48.63c0 2.08-1.68 3.77-3.74 3.77h-76.44a3.77 3.77 0 0 1-3.76-3.77c0-2.07 1.69-3.76 3.76-3.76h76.44c2.06 0 3.74 1.69 3.74 3.76zM6449.13 1752.51l1.63 9.52-8.57-4.49-8.55 4.49 1.63-9.52-6.92-6.76 9.57-1.37 4.27-8.68 4.29 8.67 9.57 1.38zm0 48.91l1.63 9.52-8.57-4.5-8.55 4.5 1.63-9.52-6.92-6.75 9.57-1.39 4.27-8.68 4.29 8.68 9.57 1.39zm0 50.05l1.63 9.54-8.57-4.49-8.55 4.49 1.63-9.54-6.92-6.74 9.57-1.4 4.27-8.65 4.29 8.65 9.57 1.4z"/></symbol><symbol viewBox="3852.943 1694.333 137.21 176" id="medications" xmlns="http://www.w3.org/2000/svg"><path d="M3988.7 1725.555c-2.914-10.907-9.87-20.002-19.585-25.612a41.927 41.927 0 0 0-20.935-5.609c-15.064 0-29.071 8.052-36.553 21.013l-26.519 45.932a.083.083 0 0 0-.008.012l-.007.013-26.52 45.933c-11.603 20.097-4.692 45.886 15.405 57.489a41.923 41.923 0 0 0 20.932 5.609c13.739 0 26.634-6.651 34.494-17.792.072-.102.14-.207.202-.315l54.911-94.789c5.605-9.679 7.09-21.001 4.183-31.884zm-66.25 122.303c-6.302 8.829-16.583 14.094-27.541 14.094a33.524 33.524 0 0 1-16.741-4.486c-16.095-9.292-21.629-29.946-12.337-46.04l24.432-42.317 9.071 5.237.002.001.002.001 49.23 28.424-26.118 45.086zm54.814-94.622l-24.496 42.286-45.614-26.336 11.723-20.305a4.19 4.19 0 1 0-7.258-4.19l-11.723 20.305-5.444-3.143 24.431-42.315c5.991-10.377 17.217-16.823 29.296-16.823 5.87 0 11.66 1.551 16.744 4.487 7.775 4.489 13.344 11.776 15.679 20.517 2.33 8.717 1.144 17.779-3.338 25.517z"/><path d="M3923.639 1732.251a4.19 4.19 0 0 0-5.724 1.534l-.068.118a4.19 4.19 0 1 0 7.258 4.19l.068-.118a4.19 4.19 0 0 0-1.534-5.724z"/></symbol><symbol viewBox="5201.153 1391.154 191.716 196.317" id="orthopedics" xmlns="http://www.w3.org/2000/svg"><path d="M5274.005 1391.154h-53.68c-10.572 0-19.172 8.601-19.172 19.183 0 10.57 8.601 19.171 19.172 19.171h.326l6.095 68.932v.026l.005.035.03.4a20.432 20.432 0 0 0 6.514 13.401 20.417 20.417 0 0 0 10.035 5.06v47.58c-6.606 1.707-11.503 7.718-11.503 14.853v3.839a3.837 3.837 0 0 0 3.834 3.834h23.005a3.835 3.835 0 0 0 3.834-3.834v-3.839c0-7.135-4.896-13.146-11.502-14.853v-47.587c8.838-1.71 15.809-9.203 16.549-18.454l.03-.4.003-.035v-.026l6.097-68.932h.326c10.572 0 19.171-8.601 19.171-19.183.003-10.57-8.597-19.171-19.169-19.171zm-19.171 188.643l-15.338.005v-.005c0-4.228 3.439-7.669 7.669-7.669 4.23.001 7.669 3.442 7.669 7.669zm-7.668-69.74a12.74 12.74 0 0 1-8.666-3.389 12.767 12.767 0 0 1-3.21-4.668h23.743c-1.902 4.729-6.556 8.057-11.867 8.057zm13.086-15.724h-26.173l-5.732-64.824h37.636l-5.731 64.824zm13.753-72.492h-53.68c-6.341 0-11.503-5.162-11.503-11.515 0-6.341 5.162-11.503 11.503-11.503h53.68c6.342 0 11.503 5.162 11.503 11.515.001 6.341-5.16 11.503-11.503 11.503zm0 0z"/><path d="M5270.171 1414.165h-30.674a3.835 3.835 0 0 1 0-7.669h30.674a3.835 3.835 0 0 1 0 7.669zm0 0zm-46.003 0a3.833 3.833 0 1 1-.004-7.669h.004a3.834 3.834 0 1 1 0 7.669zm0 0zm149.53-23.011h-53.682c-10.57 0-19.171 8.601-19.171 19.183 0 10.57 8.601 19.171 19.171 19.171h.328l6.095 68.945v.014l.005.035.03.403a20.428 20.428 0 0 0 6.514 13.398 20.417 20.417 0 0 0 10.035 5.06v47.58c-6.606 1.707-11.503 7.718-11.503 14.853v3.839a3.837 3.837 0 0 0 3.834 3.834h23.006a3.836 3.836 0 0 0 3.834-3.834v-3.839c0-7.135-4.896-13.146-11.504-14.853v-47.587c8.84-1.71 15.811-9.203 16.551-18.454l.03-.4.004-.035v-.014l6.096-68.945h.327c10.571 0 19.171-8.601 19.171-19.183 0-10.57-8.599-19.171-19.171-19.171zm-19.173 188.643l-15.336.005v-.005c0-4.228 3.438-7.669 7.669-7.669 4.229.001 7.667 3.442 7.667 7.669zm-7.667-69.74a12.74 12.74 0 0 1-8.666-3.389 12.752 12.752 0 0 1-3.209-4.668h23.742c-1.902 4.729-6.556 8.057-11.867 8.057zm13.086-15.724h-26.173l-5.732-64.824h37.636l-5.731 64.824zm13.754-72.492h-53.682c-6.34 0-11.502-5.162-11.502-11.515 0-6.341 5.162-11.503 11.502-11.503h53.682c6.341 0 11.502 5.162 11.502 11.515 0 6.341-5.161 11.503-11.502 11.503zm0 0z"/></symbol><symbol viewBox="0 0 34 34" id="pharmacy" xmlns="http://www.w3.org/2000/svg"><image width="34" height="34"/></symbol><symbol viewBox="3262.822 222.103 428.323 428.297" id="phone" xmlns="http://www.w3.org/2000/svg"><path d="M3691.07 566.96c-.76-18.03-11.53-35.12-32.9-52.26-25.13-20.21-45.01-29.62-62.58-29.62-21.51 0-35.19 13.88-49.68 28.58l-4.47 4.48c-.25.25-1.01 1.01-3.37 1.01-5.47 0-14.34-3.81-24.97-10.72-15.56-10.1-35.18-26.95-58.31-50.08-30.11-30.09-49.34-53.96-57.16-70.94-5.71-12.41-2.73-15.67-2.71-15.7l4.49-4.42c25.62-25.26 49.83-49.11-.9-112.25-17.29-21.46-34.39-32.22-52.3-32.89-26.08-1.16-45.69 19.52-61.38 36.03l-1.04 1.08c-2.31 2.44-4.4 4.62-6.57 6.72-18.8 18.89-19.21 58.81-1.11 106.78 19.43 51.38 57.56 107.1 107.36 156.91 49.99 49.92 105.69 88.02 156.85 107.29 23.29 8.79 45.2 13.44 63.35 13.44 18.92 0 33.97-5.04 43.51-14.56 1.28-1.28 2.61-2.57 4.01-3.91l.21-.19c1.17-1.12 2.36-2.24 3.48-3.35 17.46-16.57 37.26-35.36 36.19-61.43zm-87.18 58.39c-15.37 0-34.3-4.07-54.76-11.78-47.92-18.06-100.47-54.15-147.95-101.62-47.43-47.37-83.51-99.93-101.61-148-13.91-36.87-15.77-69.11-4.65-80.21 1.57-1.54 3.08-3.11 4.69-4.78l.6-.63c.9-.94 1.82-1.89 2.81-2.9 12.55-13.27 26.77-28.3 41.3-28.3h.96c10.12.45 21.46 8.38 33.69 23.58 17.48 21.76 24.77 36.64 23.66 48.22-1.06 11.07-9.36 19.25-20.85 30.57l-4.47 4.4c-11.17 11.17-11.29 27.43-.36 48.33 10.1 19.3 29.77 43.43 60.12 73.79 24.3 24.3 45.29 42.27 62.39 53.43 15.32 9.93 28.07 14.76 38.96 14.76 8.25 0 15.23-2.81 20.75-8.36l4.5-4.52.17-.15c11.92-12.06 20.54-20.78 32.49-20.78 11.25 0 25.9 7.56 46.12 23.8 15.23 12.18 23.16 23.54 23.57 33.75.59 14.81-14.79 29.39-28.39 42.27l-.17.17c-2.9 2.75-5.5 5.22-8 7.73-4.72 4.73-13.57 7.23-25.57 7.23zm13.79-227.58c-1.96 4.7-6.48 7.74-11.54 7.74-1.62 0-3.17-.28-4.6-.83l-.19-.06c-3.16-1.34-5.58-3.79-6.84-6.92-1.24-3.07-1.22-6.42.06-9.43 8.04-19.86 3.4-42.6-11.81-57.92-9.91-9.87-23.74-15.54-37.95-15.54-7.65 0-15.04 1.58-21.95 4.68-1.61.73-3.33 1.1-5.1 1.1-4.92 0-9.41-2.88-11.43-7.34-2.79-6.39.03-13.84 6.29-16.61 10.11-4.58 20.92-6.9 32.14-6.9 20.82 0 41.12 8.37 55.68 22.97 22.4 22.35 29.17 55.74 17.24 85.06z"/><path d="M3680.39 423.18c-1.89 4.64-6.55 7.76-11.61 7.76-1.67 0-3.2-.28-4.68-.86-3.12-1.26-5.64-3.75-6.91-6.83-1.29-3.1-1.28-6.49.02-9.54 18.31-45.13 7.85-96.61-26.66-131.12-22.44-22.49-53.73-35.38-85.85-35.38-17.31 0-34.02 3.59-49.66 10.67l-.11.05c-1.61.68-3.28 1.02-4.99 1.02-4.93 0-9.44-2.89-11.48-7.37-1.38-3.04-1.48-6.43-.31-9.57 1.19-3.13 3.51-5.6 6.54-6.97 18.88-8.55 39.05-12.88 59.95-12.88 38.77 0 76.55 15.57 103.65 42.72 41.61 41.54 54.21 103.68 32.1 158.3z"/></symbol><symbol viewBox="2500.253 1694.661 194.39 147.57" id="pills" xmlns="http://www.w3.org/2000/svg"><path d="M2661.393 1775.741h-14.28l4.31-2.77c5.69-3.64 10.7-8.06 14.88-13.12 10.65-12.87 16.27-28.56 16.27-45.37v-15.53a4.29 4.29 0 0 0-4.29-4.29h-15.53c-14.5 0-28.44 4.31-40.31 12.46l-.87.6-.86-.62c-11.07-8.03-24.72-12.44-38.44-12.44h-9.75c-2.36 0-4.29 1.92-4.29 4.29v9.74c0 5.26.63 10.51 1.86 15.59l.22.91-.72.6c-.81.67-1.57 1.36-2.27 2.06l-57.33 57.33c-6.28 6.28-9.74 14.63-9.74 23.51 0 8.89 3.46 17.23 9.74 23.51s14.63 9.74 23.51 9.74c8.06 0 15.83-2.92 21.88-8.22l1-.88.99.89a33.16 33.16 0 0 0 22.17 8.5h81.85c18.33 0 33.25-14.91 33.25-33.25 0-18.33-14.92-33.24-33.25-33.24zm1.36-72.5h11.24v11.24c0 14.79-4.94 28.58-14.3 39.9-11.22 13.57-28.9 21.35-48.5 21.36h-3.62l27.42-27.43a4.25 4.25 0 0 0 1.26-3.03c0-1.15-.45-2.22-1.26-3.03a4.233 4.233 0 0 0-3.04-1.26c-1.14 0-2.22.44-3.03 1.26l-28.81 28.8-.09-3.49c-.4-14.84 4.55-29.41 13.94-41.02 11.97-14.81 29.75-23.3 48.79-23.3zm-85.93 0h5.45c10.95 0 21.59 3.12 30.78 9.02l1.6 1.02-1.37 1.32a73.766 73.766 0 0 0-6 6.54c-.38.48-.76.96-1.13 1.45l-1.04 1.36-4.87-4.87a4.268 4.268 0 0 0-3.03-1.26c-1.15 0-2.23.45-3.04 1.26a4.303 4.303 0 0 0 0 6.07l6.21 6.2-.53.99c-2.4 4.46-4.32 9.19-5.71 14.06l-.74 2.58-1.81-1.99c-9.53-10.46-14.77-24.06-14.77-38.3v-5.45zm-3.56 30.82l.89 1.96c3.96 8.65 9.68 16.21 17.01 22.48l.58.5-.06.77c-.41 4.73-.34 9.54.21 14.29l.19 1.68h-12.54c-4.16 0-8.22.76-12.06 2.26l-.91.36-18.81-18.81 25.5-25.49zm-23.11 92.83a24.577 24.577 0 0 1-16.65 6.47c-6.59 0-12.78-2.57-17.44-7.23-4.66-4.65-7.22-10.85-7.22-17.44s2.56-12.78 7.22-17.44l25.63-25.63 17.24 17.24-1.21 1.06c-7.26 6.33-11.43 15.46-11.43 25.06 0 5.62 1.44 11.18 4.16 16.08l.57 1.03-.87.8zm65.64 6.76h-36.25c-13.6 0-24.67-11.07-24.67-24.67s11.07-24.66 24.67-24.66h36.25v49.33zm45.6 0h-37.02v-49.33h37.02c13.6 0 24.67 11.06 24.67 24.66s-11.07 24.67-24.67 24.67z"/></symbol><symbol viewBox="3281.28 802.953 447.947 385.848" id="plane" xmlns="http://www.w3.org/2000/svg"><path d="M3281.319 995.925c.549 9.23 6.669 16.997 15.53 19.642l164.095 49.614 6.028 113.109c.276 4.479 3.288 8.409 7.583 9.867 1.187.46 2.468.643 3.655.643 3.198 0 6.214-1.28 8.405-3.747l58.018-64.233 82.229 56.921a21.554 21.554 0 0 0 12.425 3.931c10.328 0 19.28-7.308 21.471-17.542l68.252-347.826c.821-4.025-.731-8.227-3.836-10.783-3.199-2.65-7.495-3.288-11.332-1.735l-419.365 170.667c-8.5 3.841-13.706 12.247-13.158 21.472zm206.487 154.317l-3.747-71.356 42.028 29.055-38.281 42.301zm151.118 8.682l-149.66-103.612 209.868-203.011-60.208 306.623zm37.185-315.576l-207.49 200.727-163.908-49.519 371.398-151.208zm0 0"/></symbol><symbol viewBox="0 0 491.86 491.86" id="plus" xmlns="http://www.w3.org/2000/svg"><path d="M465.167 211.614H280.245V26.691c0-8.424-11.439-26.69-34.316-26.69s-34.316 18.267-34.316 26.69v184.924H26.69C18.267 211.614 0 223.053 0 245.929s18.267 34.316 26.69 34.316h184.924v184.924c0 8.422 11.438 26.69 34.316 26.69s34.316-18.268 34.316-26.69V280.245H465.17c8.422 0 26.69-11.438 26.69-34.316s-18.27-34.315-26.693-34.315z"/></symbol><symbol viewBox="0 0 511.63 511.631" id="reply" xmlns="http://www.w3.org/2000/svg"><path d="M496.5 233.842c-30.841-76.706-114.112-115.06-249.823-115.06h-63.953V45.693c0-4.952-1.809-9.235-5.424-12.85-3.617-3.617-7.896-5.426-12.847-5.426-4.952 0-9.235 1.809-12.85 5.426L5.424 179.021C1.809 182.641 0 186.922 0 191.871c0 4.948 1.809 9.229 5.424 12.847L151.604 350.9c3.619 3.613 7.902 5.428 12.85 5.428 4.947 0 9.229-1.814 12.847-5.428 3.616-3.614 5.424-7.898 5.424-12.848v-73.094h63.953c18.649 0 35.349.568 50.099 1.708a361.232 361.232 0 0 1 43.968 6.143c14.564 2.95 27.224 6.991 37.979 12.135 10.753 5.144 20.794 11.756 30.122 19.842 9.329 8.094 16.943 17.7 22.847 28.839 5.896 11.136 10.513 24.311 13.846 39.539 3.326 15.229 4.997 32.456 4.997 51.675 0 10.466-.479 22.176-1.428 35.118 0 1.137-.236 3.375-.715 6.708-.473 3.333-.712 5.852-.712 7.562 0 2.851.808 5.232 2.423 7.136 1.622 1.902 3.86 2.851 6.714 2.851 3.046 0 5.708-1.615 7.994-4.853 1.328-1.711 2.561-3.806 3.71-6.283a503.014 503.014 0 0 0 3.854-8.562 641.239 641.239 0 0 0 2.998-6.848c24.17-54.238 36.258-97.158 36.258-128.756-.002-37.873-5.043-69.568-15.132-95.07z"/></symbol><symbol viewBox="0 0 31.49 31.49" id="right-arrow" xmlns="http://www.w3.org/2000/svg"><path d="M21.205 5.007a1.112 1.112 0 0 0-1.587 0 1.12 1.12 0 0 0 0 1.571l8.047 8.047H1.111A1.106 1.106 0 0 0 0 15.737c0 .619.492 1.127 1.111 1.127h26.554l-8.047 8.032c-.429.444-.429 1.159 0 1.587a1.112 1.112 0 0 0 1.587 0l9.952-9.952a1.093 1.093 0 0 0 0-1.571l-9.952-9.953z"/></symbol><symbol viewBox="1286.754 1720.103 58.751 100.004" id="right-arrow-chevron" xmlns="http://www.w3.org/2000/svg"><path d="M1299.407 1721.7c-1.029-1.03-2.403-1.598-3.868-1.598s-2.839.568-3.868 1.598l-3.277 3.276a5.477 5.477 0 0 0 0 7.737l37.37 37.37-37.412 37.412a5.436 5.436 0 0 0-1.598 3.868c0 1.466.568 2.839 1.598 3.87l3.277 3.276c1.03 1.03 2.403 1.598 3.868 1.598s2.839-.568 3.868-1.598l44.545-44.543a5.437 5.437 0 0 0 1.595-3.88 5.438 5.438 0 0 0-1.595-3.884l-44.503-44.502z"/></symbol><symbol viewBox="2751.264 772.801 392.001 392.001" id="search" xmlns="http://www.w3.org/2000/svg"><path d="M3138.463 1136.961l-94.238-94.238c23.359-28.481 37.437-64.961 37.437-104.723 0-91.199-74-165.199-165.199-165.199-91.277 0-165.199 74-165.199 165.199s73.922 165.199 165.199 165.199c39.762 0 76.16-14 104.641-37.359l94.238 94.16a16.316 16.316 0 0 0 23.121 0c6.403-6.32 6.403-16.719 0-23.039zm-222-66.64c-73.039 0-132.398-59.36-132.398-132.321s59.359-132.398 132.398-132.398c72.961 0 132.403 59.437 132.403 132.398s-59.442 132.321-132.403 132.321zm0 0"/></symbol><symbol viewBox="2779.75 1696.421 144.707 144.708" id="smile" xmlns="http://www.w3.org/2000/svg"><path d="M2903.293 1717.593c-28.227-28.228-74.15-28.228-102.371-.007-28.228 28.228-28.228 74.15 0 102.378 28.221 28.221 74.145 28.221 102.364-.007 28.228-28.221 28.228-74.143.007-102.364zm-7.902 94.469c-23.864 23.871-62.704 23.877-86.574.007-23.877-23.871-23.871-62.718 0-86.588 23.87-23.864 62.704-23.871 86.581.007 23.865 23.864 23.865 62.71-.007 86.574zm-70.285-62.878a8.46 8.46 0 0 1 8.459-8.461c4.672 0 8.454 3.791 8.454 8.461a8.454 8.454 0 0 1-8.454 8.461 8.454 8.454 0 0 1-8.459-8.461zm38.361 0c0-4.67 3.79-8.461 8.461-8.461a8.465 8.465 0 0 1 8.461 8.461 8.456 8.456 0 0 1-8.461 8.461 8.459 8.459 0 0 1-8.461-8.461zm19.999 34.652c-5.243 12.125-17.521 19.96-31.279 19.96-14.057 0-26.408-7.869-31.472-20.06a4.092 4.092 0 0 1 3.778-5.662c1.606 0 3.131.952 3.784 2.524 3.792 9.121 13.172 15.017 23.91 15.017 10.494 0 19.822-5.903 23.772-15.024a4.084 4.084 0 0 1 5.376-2.139 4.092 4.092 0 0 1 2.131 5.384zm0 0"/></symbol><symbol viewBox="3239.062 1697.345 140.469 133.594" id="star" xmlns="http://www.w3.org/2000/svg"><path d="M3352.703 1830.938l-43.407-22.82-43.407 22.82 8.29-48.334-35.117-34.23 48.531-7.053 21.703-43.977 21.703 43.977 48.531 7.053-35.117 34.23 8.29 48.334zm-43.407-32.64l31.862 16.752-6.085-35.48 25.777-25.127-35.623-5.176-15.932-32.281-15.932 32.281-35.623 5.176 25.777 25.127-6.085 35.48 31.864-16.752z"/></symbol><symbol viewBox="1826.699 1691.264 157.682 157.682" id="syringe" xmlns="http://www.w3.org/2000/svg"><path d="M1964.289 1731.451c5.367 0 10.41-2.089 14.204-5.885s5.889-8.841 5.889-14.207a19.955 19.955 0 0 0-5.885-14.209 19.972 19.972 0 0 0-14.211-5.887c-5.369 0-10.412 2.091-14.213 5.887-6.598 6.608-7.609 16.695-3.078 24.396l-8.904 8.904-21.761-21.759-7.103 7.106 7.05 7.048-65.615 65.609c-5.5 5.498-5.5 14.444 0 19.941l4.741 4.743-28.704 28.702 7.104 7.106 28.704-28.704 4.738 4.736a14 14 0 0 0 9.971 4.131c3.766 0 7.308-1.466 9.973-4.131l65.609-65.611 7.05 7.05 7.104-7.105-21.757-21.757 8.898-8.898a19.97 19.97 0 0 0 10.196 2.794zm-84.204 86.421c-1.532 1.531-4.203 1.534-5.733.002l-16.584-16.583a4.06 4.06 0 0 1-.002-5.734l15.102-15.1 10.469 10.469 7.104-7.103-10.469-10.469 9.082-9.083 10.467 10.471 7.104-7.104-10.467-10.471 10.615-10.615 22.316 22.316-49.004 49.004zm56.111-56.106l-22.318-22.316 9.228-9.226 22.313 22.314-9.223 9.228zm20.984-57.509a9.972 9.972 0 0 1 7.104-2.947 9.985 9.985 0 0 1 7.107 2.947 9.966 9.966 0 0 1 2.94 7.1 9.98 9.98 0 0 1-2.947 7.106 9.968 9.968 0 0 1-7.096 2.94 9.988 9.988 0 0 1-7.104-2.94c-3.915-3.919-3.919-10.291-.004-14.206zm0 0"/></symbol><symbol viewBox="0 -24 512 512" id="telegram-logo" xmlns="http://www.w3.org/2000/svg"><path d="M512 0L0 217.629l134.223 53.27 47.78 179.605 87.981-85.246 143.133 98.855zM188.977 293.922l-5.168 46.828-19.84-74.59 186.898-127.297zM356.98 98.449L144.898 242.9l-66.07-26.22zM209.371 382.266l6.04-54.704 29.433 20.333zm17.527-83.18L466.547 69.55l-73.371 344.375zm0 0"/></symbol><symbol viewBox="2097.682 1677.299 105.966 185.612" id="temperature" xmlns="http://www.w3.org/2000/svg"><path d="M2203.648 1700.914v7.912h-30.654v-7.912h30.654zm-12.855 17.24h-17.799v7.913h17.799v-7.913zm-17.798 25.152h30.654v-7.91h-30.654v7.91zm17.798 9.335h-17.799v7.91h17.799v-7.91zm-17.798 25.149h30.654v-7.909h-30.654v7.909zm4.778 45.075c0 22.08-17.963 40.046-40.043 40.046-22.083 0-40.047-17.966-40.047-40.046 0-14.31 7.516-27.315 19.775-34.509v-90.785c0-11.179 9.093-20.272 20.272-20.272 11.175 0 20.268 9.093 20.268 20.272v90.785c12.263 7.187 19.775 20.196 19.775 34.509zm-7.909 0c0-12.144-6.746-23.117-17.612-28.634l-2.164-1.1v-95.557c0-6.818-5.544-12.359-12.359-12.359-6.816 0-12.36 5.541-12.36 12.359v95.557l-2.163 1.1c-10.866 5.52-17.615 16.494-17.615 28.634 0 17.72 14.417 32.135 32.138 32.135 17.717-.001 32.135-14.416 32.135-32.135zm-6.59 0c0 14.084-11.458 25.542-25.545 25.542-14.084 0-25.543-11.458-25.543-25.542 0-11.545 7.798-21.684 18.968-24.653l1.466-.391v-48.788h10.217v48.785l1.466.394c11.176 2.968 18.971 13.11 18.971 24.653zm-24.28-17.027c-.61-2.708-3.329-4.486-6.103-3.852-9.682 2.191-16.446 10.658-16.446 20.592a5.109 5.109 0 0 0 5.102 5.103 5.11 5.11 0 0 0 5.103-5.103c0-5.048 3.567-9.525 8.492-10.637 2.737-.631 4.468-3.366 3.852-6.103zm0 0"/></symbol><symbol viewBox="-49 141 512 512" id="thumbs-up" xmlns="http://www.w3.org/2000/svg"><path d="M34.578 308.256h-66.862c-9.191 0-16.716 7.486-16.716 16.716v300.881c0 9.225 7.491 16.713 16.716 16.713h66.862c9.225 0 16.716-7.489 16.716-16.713V324.972c0-9.229-7.525-16.716-16.716-16.716zm257.948 0l17.606-48.032c12.148-33.174 4.283-83.827-29.424-101.835-10.975-5.864-26.309-8.809-38.672-5.697-7.09 1.784-13.321 6.478-17.035 12.767-4.271 7.233-3.83 15.676-5.351 23.696-3.857 20.342-13.469 39.683-28.354 54.2-25.952 25.311-106.571 98.331-106.571 98.331v267.45h278.593c37.592.022 62.228-41.958 43.687-74.749 22.101-14.155 29.66-43.97 16.716-66.862 22.102-14.155 29.66-43.97 16.716-66.862 38.136-24.423 25.387-84.871-19.171-92.407-2.693-.455-128.74 0-128.74 0z"/></symbol><symbol viewBox="0 0 475.099 475.099" id="thumbs-up-2" xmlns="http://www.w3.org/2000/svg"><path d="M442.829 265.532c9.328-14.089 13.986-29.598 13.986-46.538 0-19.607-7.225-36.637-21.687-51.117-14.469-14.465-31.601-21.696-51.394-21.696h-50.251c9.134-18.842 13.709-37.117 13.709-54.816 0-22.271-3.34-39.971-9.996-53.105-6.663-13.138-16.372-22.795-29.126-28.984C295.313 3.09 280.947 0 264.959 0c-9.712 0-18.274 3.521-25.697 10.566-8.183 7.993-14.084 18.274-17.699 30.837-3.617 12.559-6.521 24.6-8.708 36.116-2.187 11.515-5.569 19.652-10.135 24.41-9.329 10.088-19.511 22.273-30.551 36.547-19.224 24.932-32.264 39.685-39.113 44.255H54.828c-10.088 0-18.702 3.574-25.84 10.706-7.135 7.139-10.705 15.752-10.705 25.841v182.723c0 10.089 3.566 18.699 10.705 25.838 7.142 7.139 15.752 10.711 25.84 10.711h82.221c4.188 0 17.319 3.806 39.399 11.42 23.413 8.186 44.017 14.418 61.812 18.702a230.392 230.392 0 0 0 54.106 6.427h36.829c26.836 0 48.438-7.666 64.809-22.99 16.365-15.324 24.458-36.213 24.27-62.67 11.42-14.657 17.129-31.597 17.129-50.819 0-4.185-.281-8.277-.855-12.278 7.23-12.748 10.854-26.453 10.854-41.11-.003-6.853-.858-13.423-2.573-19.7zM85.949 396.58c-3.616 3.614-7.898 5.428-12.847 5.428-4.95 0-9.233-1.813-12.85-5.428-3.615-3.613-5.424-7.897-5.424-12.85 0-4.948 1.805-9.229 5.424-12.847 3.621-3.617 7.9-5.425 12.85-5.425 4.949 0 9.231 1.808 12.847 5.425 3.617 3.617 5.426 7.898 5.426 12.847 0 4.953-1.809 9.237-5.426 12.85zm328.196-154.161c-4.093 8.754-9.186 13.227-15.276 13.415 2.854 3.237 5.235 7.762 7.139 13.562 1.902 5.807 2.847 11.087 2.847 15.848 0 13.127-5.037 24.455-15.126 33.969 3.43 6.088 5.141 12.658 5.141 19.697 0 7.043-1.663 14.038-4.996 20.984-3.327 6.94-7.851 11.938-13.559 14.982.951 5.709 1.423 11.04 1.423 15.988 0 31.785-18.274 47.678-54.823 47.678h-34.536c-24.94 0-57.483-6.943-97.648-20.841-.953-.38-3.709-1.383-8.28-2.998s-7.948-2.806-10.138-3.565c-2.19-.767-5.518-1.861-9.994-3.285-4.475-1.431-8.087-2.479-10.849-3.142-2.758-.664-5.901-1.283-9.419-1.855-3.52-.571-6.519-.855-8.993-.855h-9.136V219.285h9.136c3.045 0 6.423-.859 10.135-2.568 3.711-1.714 7.52-4.283 11.421-7.71a294.593 294.593 0 0 0 10.992-10.138c3.427-3.33 7.233-7.517 11.422-12.559 4.187-5.046 7.47-9.089 9.851-12.135a1179.86 1179.86 0 0 0 8.992-11.707c3.615-4.757 5.806-7.613 6.567-8.566 10.467-12.941 17.795-21.601 21.982-25.981 7.804-8.182 13.466-18.603 16.987-31.261 3.525-12.66 6.427-24.604 8.703-35.832 2.282-11.229 5.903-19.321 10.858-24.27 18.268 0 30.453 4.471 36.542 13.418 6.088 8.945 9.134 22.746 9.134 41.399 0 11.229-4.572 26.503-13.71 45.821-9.134 19.32-13.698 34.5-13.698 45.539h100.495c9.527 0 17.993 3.662 25.413 10.994 7.426 7.327 11.143 15.843 11.143 25.553-.003 6.661-2.05 14.371-6.142 23.137z"/></symbol><symbol viewBox="3935.743 337.548 147.458 158.474" id="user" xmlns="http://www.w3.org/2000/svg"><path d="M4050.15 378.226c0 22.464-18.214 40.678-40.678 40.678s-40.678-18.214-40.678-40.678 18.214-40.678 40.678-40.678 40.678 18.214 40.678 40.678zm-40.678 44.067c-40.718 0-73.729 33.011-73.729 73.729H4083.2c0-40.718-33.011-73.729-73.728-73.729zm0 0"/></symbol><symbol viewBox="5372.2 1693.35 154.99 197.86" id="vitamins" xmlns="http://www.w3.org/2000/svg"><path d="M5399.986 1746.584zM5514 1864.83h-14.41c2.32-5 1.27-10.91-2.64-14.79-5.22-4.98-13.43-4.98-18.65 0l-18.64 18.64a13.035 13.035 0 0 0-2.05 15.93h-75.52c-1.82 0-3.3-1.47-3.3-3.29v-32.98h92.34c1.82 0 3.3-1.48 3.3-3.3 0-1.82-1.48-3.3-3.3-3.3h-92.34v-65.95h105.53v59.36c0 1.82 1.48 3.3 3.3 3.3 1.82 0 3.29-1.48 3.29-3.3v-80.8c.02-3.06-1.2-6-3.37-8.16a11.635 11.635 0 0 0-8.17-3.38c-12.26 0-14.84-2.69-14.84-4.95v-4.94c5.47 0 9.9-4.43 9.9-9.89v-19.79c0-5.47-4.43-9.89-9.9-9.89h-65.95a9.88 9.88 0 0 0-9.89 9.89v19.79c0 5.46 4.42 9.89 9.89 9.89v4.94c.11 1.27-.61 2.46-1.79 2.95-4.14 1.64-8.6 2.32-13.05 2-6.38 0-11.54 5.17-11.54 11.54v126.97c0 5.46 4.42 9.89 9.89 9.89H5469c3.49 0 6.83-1.39 9.29-3.86l.02-.02c1.23 1.23 2.69 2.2 4.29 2.86l.1.05.06.03c.06.03.12.05.18.06 1.43.58 2.97.88 4.53.88H5514c7.28 0 13.19-5.91 13.19-13.19 0-7.29-5.91-13.19-13.19-13.19zm-115.42-138.51c-1.82 0-3.3-1.47-3.3-3.29v-19.79c0-1.82 1.479-3.3 3.3-3.3h3.3v9.89c0 1.83 1.47 3.3 3.29 3.3s3.3-1.47 3.3-3.3v-9.89h6.6v9.89c0 1.83 1.47 3.3 3.3 3.3 1.82 0 3.29-1.47 3.29-3.3v-9.89h6.6v9.89c0 1.83 1.47 3.3 3.3 3.3 1.82 0 3.29-1.47 3.29-3.3v-9.89h6.6v9.89c0 1.83 1.47 3.3 3.3 3.3 1.82 0 3.3-1.47 3.3-3.3v-9.89h6.59v9.89c0 1.83 1.48 3.3 3.3 3.3s3.3-1.47 3.3-3.3v-9.89h3.29c1.82 0 3.3 1.48 3.3 3.3v19.79c0 1.82-1.48 3.29-3.3 3.29h-65.95zm-19.79 28.03c0-2.73 2.22-4.94 4.95-4.94 5.56.38 11.14-.58 16.25-2.83a9.51 9.51 0 0 0 5.18-8.72v-4.94h52.77v4.94c0 11.55 16.13 11.55 21.43 11.55 1.32-.01 2.58.51 3.51 1.44a4.9 4.9 0 0 1 1.44 3.5v14.84h-105.53v-14.84zm97.49 125.68c-.03.03-.05.05-.08.07l-2.57 2.58a6.593 6.593 0 0 1-6.37 1.71 6.603 6.603 0 0 1-4.67-4.66 6.58 6.58 0 0 1 1.71-6.37l6.99-7 9.33 9.33-4.34 4.34zm-.32-18.34l6.99-6.99a6.625 6.625 0 0 1 6.42-1.8c2.3.61 4.1 2.41 4.71 4.71.6 2.31-.08 4.76-1.8 6.42l-1.82 1.82-5.17 5.17-9.33-9.33zm21.55 22.92h-9.89c-.79.02-1.57-.13-2.29-.44-.12-.05-.24-.1-.37-.13-.75-.33-1.43-.79-2-1.36l11.25-11.26h3.3v13.19zm16.49 0h-9.89v-13.19h9.89c3.64 0 6.59 2.96 6.59 6.6a6.59 6.59 0 0 1-6.59 6.59z"/><path d="M5455.2 1803.681c-2.394-10.387-17.531-17.347-46.284-21.267-.062 0-.123.019-.181 0a3.26 3.26 0 0 0-.801.063 2.825 2.825 0 0 0-.518.092 3.1 3.1 0 0 0-.794.441 2.82 2.82 0 0 0-.331.175l-.033.039a3.384 3.384 0 0 0-.691.93c-.031.061-.086.1-.113.159v.017a3.311 3.311 0 0 0-.276 1.319l-.003.033c0 3.8.441 37.337 15.667 44.655a14.232 14.232 0 0 0 6.236 1.415 23.745 23.745 0 0 0 12.884-4.633 52.496 52.496 0 0 1 1.553 5.391 3.298 3.298 0 0 0 3.232 2.639c.222 0 .442-.023.66-.07a3.298 3.298 0 0 0 2.572-3.889 61.387 61.387 0 0 0-2.428-8.216c3.99-3.24 11.618-10.738 9.649-19.293zm-31.5 20.713c-8.21-3.957-11.041-22.094-11.735-33.241a63.082 63.082 0 0 1 25.527 29.657c-5.636 4.049-10.276 5.276-13.792 3.584zm.801-32.495c19.042 4.402 23.503 9.942 24.269 13.24.93 4.006-2.598 8.422-5.867 11.417a71.671 71.671 0 0 0-18.402-24.657zm0 0zm-35.816 79.525a3.297 3.297 0 1 0 0 6.595h24.733a3.297 3.297 0 0 0 0-6.595h-24.733zm0 0zm29.68-122.017h24.733a3.297 3.297 0 1 0 0-6.595h-24.733a3.297 3.297 0 1 0 0 6.595zm0 0z"/></symbol></svg>