<?xml version="1.0" encoding="iso-8859-1"?>
<!-- Generator: Adobe Illustrator 18.0.0, SVG Export Plug-In . SVG Version: 6.00 Build 0)  -->
<!DOCTYPE svg PUBLIC "-//W3C//DTD SVG 1.1//EN" "http://www.w3.org/Graphics/SVG/1.1/DTD/svg11.dtd">
<svg version="1.1" id="Layer_1" xmlns="http://www.w3.org/2000/svg" xmlns:xlink="http://www.w3.org/1999/xlink" x="0px" y="0px"
	 viewBox="4907.965 300.59 244.35 232.391" style="enable-background:new 4907.965 300.59 244.35 232.391;" xml:space="preserve">
<g>
	<polygon style="fill:#E5354C;" points="5030.14,319.045 5067.894,300.59 5087.59,337.712 5128.981,344.972 5123.096,386.582 
		5152.315,416.785 5123.096,446.988 5128.981,488.598 5087.59,495.858 5067.894,532.981 5030.14,514.525 4992.386,532.981 
		4972.69,495.858 4931.298,488.598 4937.184,446.988 4907.965,416.785 4937.184,386.582 4931.298,344.972 4972.69,337.712 
		4992.386,300.59 	"/>
	<g>
		<path style="fill:#fff;" d="M5023.835,398.978c0,16.644-10.525,25.333-22.028,25.333c-12.114,0-21.66-9.057-21.66-23.987
			c0-14.194,8.689-24.965,22.271-24.965C5016.126,375.359,5023.835,385.393,5023.835,398.978z M4993.976,399.835
			c0,8.321,2.815,14.319,8.2,14.319c5.262,0,7.833-5.384,7.833-14.319c0-8.077-2.205-14.319-7.955-14.319
			C4996.546,385.516,4993.976,391.88,4993.976,399.835z M5002.787,457.596l45.647-82.237h10.035l-45.77,82.237H5002.787z
			 M5081.108,432.02c0,16.644-10.525,25.333-22.028,25.333c-11.994,0-21.538-9.057-21.66-23.987
			c0-14.196,8.689-24.965,22.271-24.965C5073.398,408.401,5081.108,418.435,5081.108,432.02z M5051.371,432.877
			c-0.123,8.321,2.691,14.319,8.078,14.319c5.261,0,7.832-5.386,7.832-14.319c0-8.077-2.082-14.319-7.832-14.319
			C5053.818,418.558,5051.371,424.922,5051.371,432.877z"/>
	</g>
</g>
</svg>
