<?xml version="1.0" encoding="iso-8859-1"?>
<!-- Generator: Adobe Illustrator 18.0.0, SVG Export Plug-In . SVG Version: 6.00 Build 0)  -->
<!DOCTYPE svg PUBLIC "-//W3C//DTD SVG 1.1//EN" "http://www.w3.org/Graphics/SVG/1.1/DTD/svg11.dtd">
<svg version="1.1" id="Layer_1" xmlns="http://www.w3.org/2000/svg" xmlns:xlink="http://www.w3.org/1999/xlink" x="0px" y="0px"
	 viewBox="4613.598 309.129 203.396 241.622" style="enable-background:new 4613.598 309.129 203.396 241.622;"
	 xml:space="preserve">
<g>
	<g>
		<path style="fill:#1CACDC;" d="M4641.913,512.997h146.767c15.614,0,28.315-12.701,28.315-28.315V337.444
			c0-15.614-12.701-28.315-28.315-28.315h-146.767c-15.614,0-28.315,12.701-28.315,28.315v184.992
			c0,15.614,12.701,28.315,28.315,28.315h146.767c15.614,0,28.315-12.701,28.315-28.315v-0.024
			c-7.894,5.938-17.701,9.462-28.315,9.462h-146.767c-5.204,0-9.438-4.234-9.438-9.438
			C4632.474,517.232,4636.709,512.997,4641.913,512.997L4641.913,512.997z M4632.474,337.444c0-5.204,4.235-9.438,9.438-9.438
			h146.767c5.204,0,9.438,4.235,9.438,9.438v147.238c0,5.204-4.234,9.438-9.438,9.438h-146.767c-3.307,0-6.485,0.57-9.438,1.617
			V337.444z M4706.995,366.231c0-6.517,5.283-11.798,11.798-11.798c6.517,0,11.798,5.281,11.798,11.798s-5.281,11.798-11.798,11.798
			C4712.278,378.029,4706.995,372.748,4706.995,366.231L4706.995,366.231z M4694.993,415.224l-8.266-16.971
			c0.004-0.001,1.331-0.649,7.729-3.772c7.674-3.744,16.718-2.927,23.6,2.133c6.879,5.058,10.354,13.446,9.066,21.887
			c-0.044,0.295-0.104,0.59-0.177,0.879l-7.492,29.799c-0.155,1.886,0.936,2.999,1.627,3.508c0.73,0.537,2.24,1.302,4.138,0.372
			l6.414-3.128l8.277,16.965l-6.412,3.128c-3.198,1.562-6.632,2.33-10.05,2.33c-4.785,0-9.536-1.508-13.551-4.461
			c-6.88-5.06-10.354-13.446-9.066-21.887c0.046-0.295,0.105-0.588,0.177-0.879l7.492-29.799c0.155-1.886-0.937-2.999-1.628-3.508
			c-0.729-0.536-2.24-1.299-4.138-0.374C4696.316,414.579,4694.993,415.224,4694.993,415.224L4694.993,415.224z M4694.993,415.224"
			/>
	</g>
</g>
</svg>
